<svg xmlns="http://www.w3.org/2000/svg" xmlns:xlink="http://www.w3.org/1999/xlink" width="150" zoomAndPan="magnify" viewBox="0 0 112.5 112.499997" height="150" preserveAspectRatio="xMidYMid meet" version="1.0"><defs><clipPath id="b3dfd23f66"><path d="M 9 59 L 102.953125 59 L 102.953125 109.761719 L 9 109.761719 Z M 9 59 " clip-rule="nonzero"/></clipPath></defs><path fill="#115e59" d="M 84.632812 28.621094 C 84.632812 29.558594 84.585938 30.492188 84.496094 31.425781 C 84.402344 32.359375 84.265625 33.285156 84.082031 34.207031 C 83.898438 35.125 83.671875 36.035156 83.398438 36.929688 C 83.128906 37.828125 82.8125 38.710938 82.453125 39.574219 C 82.09375 40.441406 81.695312 41.289062 81.253906 42.113281 C 80.8125 42.941406 80.328125 43.746094 79.808594 44.523438 C 79.289062 45.304688 78.730469 46.054688 78.136719 46.78125 C 77.539062 47.503906 76.910156 48.199219 76.25 48.863281 C 75.585938 49.523438 74.890625 50.152344 74.167969 50.746094 C 73.441406 51.34375 72.691406 51.902344 71.910156 52.421875 C 71.132812 52.941406 70.328125 53.421875 69.5 53.867188 C 68.675781 54.308594 67.828125 54.707031 66.960938 55.066406 C 66.097656 55.425781 65.214844 55.742188 64.316406 56.011719 C 63.421875 56.285156 62.511719 56.511719 61.59375 56.695312 C 60.671875 56.878906 59.746094 57.015625 58.8125 57.109375 C 57.882812 57.199219 56.945312 57.246094 56.007812 57.246094 C 55.070312 57.246094 54.136719 57.199219 53.203125 57.109375 C 52.269531 57.015625 51.34375 56.878906 50.425781 56.695312 C 49.503906 56.511719 48.597656 56.285156 47.699219 56.011719 C 46.800781 55.742188 45.921875 55.425781 45.054688 55.066406 C 44.1875 54.707031 43.34375 54.308594 42.515625 53.867188 C 41.6875 53.421875 40.886719 52.941406 40.105469 52.421875 C 39.328125 51.902344 38.574219 51.34375 37.851562 50.746094 C 37.125 50.152344 36.429688 49.523438 35.769531 48.863281 C 35.105469 48.199219 34.476562 47.503906 33.882812 46.78125 C 33.289062 46.054688 32.730469 45.304688 32.207031 44.523438 C 31.6875 43.746094 31.207031 42.941406 30.765625 42.113281 C 30.324219 41.289062 29.921875 40.441406 29.5625 39.574219 C 29.203125 38.710938 28.890625 37.828125 28.617188 36.929688 C 28.34375 36.035156 28.117188 35.125 27.933594 34.207031 C 27.75 33.285156 27.613281 32.359375 27.523438 31.425781 C 27.429688 30.492188 27.382812 29.558594 27.382812 28.621094 C 27.382812 27.683594 27.429688 26.75 27.523438 25.816406 C 27.613281 24.882812 27.75 23.957031 27.933594 23.039062 C 28.117188 22.117188 28.34375 21.210938 28.617188 20.3125 C 28.890625 19.414062 29.203125 18.535156 29.5625 17.667969 C 29.921875 16.800781 30.324219 15.953125 30.765625 15.128906 C 31.207031 14.300781 31.6875 13.5 32.207031 12.71875 C 32.730469 11.9375 33.289062 11.1875 33.882812 10.460938 C 34.476562 9.738281 35.105469 9.042969 35.769531 8.382812 C 36.429688 7.71875 37.125 7.089844 37.851562 6.496094 C 38.574219 5.898438 39.328125 5.34375 40.105469 4.820312 C 40.886719 4.300781 41.6875 3.820312 42.515625 3.378906 C 43.34375 2.933594 44.1875 2.535156 45.054688 2.175781 C 45.921875 1.816406 46.800781 1.503906 47.699219 1.230469 C 48.597656 0.957031 49.503906 0.730469 50.425781 0.546875 C 51.34375 0.363281 52.269531 0.226562 53.203125 0.136719 C 54.136719 0.0429688 55.070312 -0.00390625 56.007812 -0.00390625 C 56.945312 -0.00390625 57.882812 0.0429688 58.8125 0.136719 C 59.746094 0.226562 60.671875 0.363281 61.59375 0.546875 C 62.511719 0.730469 63.421875 0.957031 64.316406 1.230469 C 65.214844 1.503906 66.097656 1.816406 66.960938 2.175781 C 67.828125 2.535156 68.675781 2.933594 69.5 3.378906 C 70.328125 3.820312 71.132812 4.300781 71.910156 4.820312 C 72.691406 5.34375 73.441406 5.898438 74.167969 6.496094 C 74.890625 7.089844 75.585938 7.71875 76.25 8.382812 C 76.910156 9.042969 77.539062 9.738281 78.136719 10.460938 C 78.730469 11.1875 79.289062 11.9375 79.808594 12.71875 C 80.328125 13.5 80.8125 14.300781 81.253906 15.128906 C 81.695312 15.953125 82.09375 16.800781 82.453125 17.667969 C 82.8125 18.535156 83.128906 19.414062 83.398438 20.3125 C 83.671875 21.210938 83.898438 22.117188 84.082031 23.039062 C 84.265625 23.957031 84.402344 24.882812 84.496094 25.816406 C 84.585938 26.75 84.632812 27.683594 84.632812 28.621094 Z M 84.632812 28.621094 " fill-opacity="1" fill-rule="nonzero"/><g clip-path="url(#b3dfd23f66)"><path fill="#115e59" d="M 56.007812 59.226562 C 53.773438 59.226562 51.542969 59.375 49.328125 59.667969 C 47.109375 59.964844 44.921875 60.402344 42.761719 60.988281 C 40.601562 61.570312 38.492188 62.292969 36.425781 63.15625 C 34.363281 64.019531 32.367188 65.015625 30.433594 66.140625 C 28.5 67.269531 26.652344 68.515625 24.882812 69.886719 C 23.117188 71.261719 21.449219 72.742188 19.878906 74.332031 C 18.304688 75.925781 16.847656 77.613281 15.496094 79.398438 C 14.148438 81.183594 12.925781 83.050781 11.824219 84.996094 C 11.644531 85.316406 11.476562 85.636719 11.316406 85.964844 C 11.160156 86.292969 11.011719 86.628906 10.875 86.964844 C 10.738281 87.304688 10.613281 87.644531 10.5 87.992188 C 10.386719 88.339844 10.285156 88.6875 10.191406 89.042969 C 10.101562 89.394531 10.023438 89.75 9.953125 90.109375 C 9.886719 90.464844 9.828125 90.824219 9.785156 91.1875 C 9.738281 91.550781 9.707031 91.914062 9.6875 92.277344 C 9.664062 92.640625 9.65625 93.003906 9.660156 93.367188 C 9.660156 93.734375 9.675781 94.097656 9.703125 94.460938 C 9.726562 94.824219 9.765625 95.1875 9.816406 95.546875 C 9.867188 95.910156 9.929688 96.269531 10.003906 96.625 C 10.074219 96.980469 10.160156 97.335938 10.257812 97.6875 C 10.355469 98.039062 10.460938 98.386719 10.582031 98.730469 C 10.699219 99.078125 10.832031 99.417969 10.972656 99.753906 C 11.113281 100.089844 11.265625 100.417969 11.429688 100.746094 C 11.589844 101.070312 11.765625 101.390625 11.949219 101.707031 C 12.132812 102.023438 12.328125 102.332031 12.53125 102.632812 C 12.734375 102.933594 12.949219 103.230469 13.171875 103.519531 C 13.394531 103.804688 13.628906 104.085938 13.867188 104.359375 C 14.109375 104.632812 14.359375 104.898438 14.617188 105.15625 C 14.878906 105.410156 15.144531 105.660156 15.417969 105.898438 C 15.695312 106.136719 15.976562 106.367188 16.265625 106.589844 C 16.558594 106.808594 16.855469 107.023438 17.15625 107.222656 C 17.460938 107.425781 17.769531 107.617188 18.085938 107.796875 C 18.402344 107.980469 18.726562 108.148438 19.050781 108.3125 C 19.378906 108.472656 19.710938 108.621094 20.050781 108.757812 C 20.386719 108.898438 20.726562 109.027344 21.074219 109.140625 C 21.417969 109.257812 21.765625 109.363281 22.121094 109.457031 C 22.472656 109.550781 22.828125 109.632812 23.183594 109.703125 C 23.542969 109.777344 23.902344 109.835938 24.261719 109.882812 C 24.625 109.929688 24.988281 109.964844 25.351562 109.988281 C 25.714844 110.011719 26.078125 110.023438 26.441406 110.023438 L 85.585938 110.023438 C 85.949219 110.023438 86.3125 110.011719 86.675781 109.988281 C 87.039062 109.964844 87.402344 109.929688 87.765625 109.882812 C 88.125 109.835938 88.484375 109.777344 88.84375 109.707031 C 89.199219 109.636719 89.554688 109.554688 89.910156 109.460938 C 90.261719 109.367188 90.609375 109.261719 90.957031 109.144531 C 91.300781 109.027344 91.640625 108.898438 91.980469 108.761719 C 92.316406 108.621094 92.648438 108.472656 92.976562 108.3125 C 93.304688 108.152344 93.625 107.980469 93.941406 107.800781 C 94.257812 107.617188 94.566406 107.425781 94.871094 107.226562 C 95.175781 107.023438 95.472656 106.8125 95.761719 106.589844 C 96.050781 106.371094 96.335938 106.140625 96.609375 105.902344 C 96.882812 105.660156 97.152344 105.414062 97.410156 105.15625 C 97.667969 104.898438 97.917969 104.632812 98.160156 104.359375 C 98.402344 104.089844 98.632812 103.808594 98.855469 103.519531 C 99.082031 103.230469 99.292969 102.9375 99.496094 102.632812 C 99.703125 102.332031 99.894531 102.023438 100.078125 101.707031 C 100.261719 101.394531 100.4375 101.074219 100.597656 100.746094 C 100.761719 100.421875 100.914062 100.089844 101.054688 99.753906 C 101.195312 99.417969 101.328125 99.078125 101.445312 98.730469 C 101.566406 98.386719 101.671875 98.039062 101.769531 97.6875 C 101.867188 97.335938 101.949219 96.980469 102.023438 96.625 C 102.097656 96.265625 102.160156 95.910156 102.207031 95.546875 C 102.257812 95.1875 102.296875 94.824219 102.324219 94.460938 C 102.347656 94.097656 102.363281 93.730469 102.367188 93.367188 C 102.367188 93.003906 102.359375 92.640625 102.339844 92.273438 C 102.316406 91.910156 102.285156 91.546875 102.238281 91.1875 C 102.195312 90.824219 102.136719 90.464844 102.070312 90.105469 C 102 89.75 101.921875 89.394531 101.828125 89.039062 C 101.738281 88.6875 101.632812 88.335938 101.519531 87.992188 C 101.40625 87.644531 101.28125 87.304688 101.144531 86.964844 C 101.007812 86.628906 100.859375 86.292969 100.699219 85.964844 C 100.542969 85.636719 100.371094 85.3125 100.195312 84.996094 C 99.09375 83.050781 97.867188 81.183594 96.519531 79.398438 C 95.171875 77.613281 93.710938 75.925781 92.140625 74.332031 C 90.570312 72.742188 88.902344 71.257812 87.132812 69.886719 C 85.367188 68.515625 83.515625 67.265625 81.585938 66.140625 C 79.652344 65.011719 77.652344 64.019531 75.589844 63.15625 C 73.527344 62.292969 71.414062 61.570312 69.253906 60.984375 C 67.097656 60.402344 64.90625 59.960938 62.691406 59.667969 C 60.472656 59.375 58.246094 59.226562 56.007812 59.226562 Z M 56.007812 59.226562 " fill-opacity="1" fill-rule="nonzero"/></g></svg>