<svg xmlns="http://www.w3.org/2000/svg" xmlns:xlink="http://www.w3.org/1999/xlink" width="150" zoomAndPan="magnify" viewBox="0 0 112.5 112.499997" height="150" preserveAspectRatio="xMidYMid meet" version="1.0"><defs><clipPath id="e6b52b2a68"><path d="M 1.339844 1.339844 L 110.355469 1.339844 L 110.355469 110.355469 L 1.339844 110.355469 Z M 1.339844 1.339844 " clip-rule="nonzero"/></clipPath></defs><g clip-path="url(#e6b52b2a68)"><path fill="#115e59" d="M 56 1.339844 C 25.863281 1.339844 1.339844 25.863281 1.339844 56 C 1.339844 86.136719 25.863281 110.660156 56 110.660156 C 86.136719 110.660156 110.660156 86.136719 110.660156 56 C 110.660156 25.863281 86.136719 1.339844 56 1.339844 Z M 25.300781 92.625 C 25.8125 76.113281 39.367188 62.832031 56 62.832031 C 72.632812 62.832031 86.1875 76.113281 86.699219 92.625 C 78.382812 99.605469 67.679688 103.828125 56 103.828125 C 44.320312 103.828125 33.617188 99.605469 25.300781 92.625 Z M 38.917969 38.917969 C 38.917969 29.5 46.582031 21.839844 56 21.839844 C 65.417969 21.839844 73.082031 29.5 73.082031 38.917969 C 73.082031 48.335938 65.417969 56 56 56 C 46.582031 56 38.917969 48.335938 38.917969 38.917969 Z M 92.875 86.421875 C 90.402344 73.652344 81.445312 63.199219 69.578125 58.574219 C 75.8125 54.257812 79.914062 47.058594 79.914062 38.917969 C 79.914062 25.734375 69.183594 15.003906 56 15.003906 C 42.816406 15.003906 32.085938 25.734375 32.085938 38.917969 C 32.085938 47.058594 36.1875 54.257812 42.421875 58.578125 C 30.554688 63.203125 21.597656 73.65625 19.121094 86.425781 C 12.285156 78.152344 8.171875 67.546875 8.171875 56 C 8.171875 29.628906 29.628906 8.171875 56 8.171875 C 82.375 8.171875 103.828125 29.628906 103.828125 56 C 103.828125 67.546875 99.714844 78.152344 92.875 86.421875 Z M 92.875 86.421875 " fill-opacity="1" fill-rule="nonzero"/></g></svg>