<svg xmlns="http://www.w3.org/2000/svg" xmlns:xlink="http://www.w3.org/1999/xlink" width="150" zoomAndPan="magnify" viewBox="0 0 112.5 112.499997" height="150" preserveAspectRatio="xMidYMid meet" version="1.0"><defs><clipPath id="10f66f74d4"><path d="M 0 0 L 112.003906 0 L 112.003906 112.003906 L 0 112.003906 Z M 0 0 " clip-rule="nonzero"/></clipPath><clipPath id="386f910560"><path d="M 56 0 C 25.074219 0 0 25.074219 0 56 C 0 86.929688 25.074219 112.003906 56 112.003906 C 86.929688 112.003906 112.003906 86.929688 112.003906 56 C 112.003906 25.074219 86.929688 0 56 0 Z M 56 0 " clip-rule="nonzero"/></clipPath><clipPath id="8fe560bc1a"><path d="M 16 16.316406 L 95.847656 16.316406 L 95.847656 95.398438 L 16 95.398438 Z M 16 16.316406 " clip-rule="nonzero"/></clipPath></defs><g clip-path="url(#10f66f74d4)"><g clip-path="url(#386f910560)"><path fill="#115e59" d="M 0 0 L 112.003906 0 L 112.003906 112.003906 L 0 112.003906 Z M 0 0 " fill-opacity="1" fill-rule="nonzero"/></g></g><path fill="#fff7ed" d="M 43.175781 63.925781 C 48.191406 65.222656 52.617188 67.992188 55.972656 71.941406 C 55.992188 71.964844 56.015625 71.992188 56.042969 72.015625 C 57.472656 73.652344 59.527344 74.585938 61.695312 74.585938 C 64.238281 74.585938 66.574219 73.324219 67.972656 71.199219 C 68 71.164062 68.023438 71.132812 68.042969 71.097656 C 71.082031 66.308594 75.714844 62.664062 81.082031 60.828125 C 87.160156 58.753906 91.246094 53.042969 91.246094 46.621094 C 91.246094 38.339844 84.507812 31.605469 76.230469 31.605469 C 75.929688 31.605469 75.621094 31.617188 75.261719 31.640625 C 75.230469 31.636719 75.195312 31.640625 75.164062 31.644531 C 69.203125 32.066406 63.144531 30.28125 58.371094 26.695312 C 56.753906 25.480469 54.828125 24.835938 52.800781 24.835938 C 47.683594 24.835938 43.523438 28.996094 43.523438 34.113281 C 43.523438 34.285156 43.527344 34.457031 43.539062 34.636719 C 43.867188 40.488281 42.121094 46.296875 38.621094 50.996094 C 38.59375 51.035156 38.566406 51.078125 38.542969 51.117188 C 37.523438 52.535156 36.984375 54.195312 36.984375 55.933594 C 36.984375 59.648438 39.46875 62.898438 43.042969 63.882812 C 43.085938 63.898438 43.128906 63.914062 43.175781 63.925781 Z M 39.429688 55.929688 C 39.429688 54.675781 39.832031 53.476562 40.589844 52.460938 C 40.617188 52.425781 40.644531 52.386719 40.667969 52.347656 C 44.453125 47.207031 46.339844 40.875 45.980469 34.5 C 45.972656 34.371094 45.96875 34.242188 45.96875 34.109375 C 45.96875 30.34375 49.03125 27.28125 52.796875 27.28125 C 54.292969 27.28125 55.710938 27.753906 56.898438 28.648438 C 62.117188 32.566406 68.71875 34.527344 75.238281 34.089844 C 75.269531 34.089844 75.304688 34.089844 75.335938 34.085938 C 75.679688 34.0625 75.964844 34.050781 76.230469 34.050781 C 83.160156 34.050781 88.796875 39.6875 88.796875 46.621094 C 88.796875 51.996094 85.378906 56.777344 80.292969 58.515625 C 74.433594 60.515625 69.378906 64.480469 66.039062 69.691406 C 66.015625 69.71875 65.996094 69.75 65.976562 69.78125 C 65.035156 71.257812 63.4375 72.140625 61.695312 72.140625 C 60.210938 72.140625 58.804688 71.488281 57.835938 70.351562 C 57.816406 70.328125 57.792969 70.304688 57.769531 70.28125 C 54.125 66.023438 49.339844 63.023438 43.921875 61.59375 C 43.878906 61.578125 43.835938 61.5625 43.792969 61.550781 C 41.222656 60.890625 39.429688 58.578125 39.429688 55.929688 Z M 39.429688 55.929688 " fill-opacity="1" fill-rule="nonzero"/><path fill="#fff7ed" d="M 64.113281 58.359375 C 70.359375 58.359375 75.4375 53.277344 75.4375 47.035156 C 75.4375 40.792969 70.359375 35.710938 64.113281 35.710938 C 57.871094 35.710938 52.792969 40.792969 52.792969 47.035156 C 52.792969 53.277344 57.871094 58.359375 64.113281 58.359375 Z M 64.113281 38.15625 C 69.011719 38.15625 72.992188 42.140625 72.992188 47.035156 C 72.992188 51.929688 69.011719 55.914062 64.113281 55.914062 C 59.21875 55.914062 55.238281 51.929688 55.238281 47.035156 C 55.238281 42.140625 59.21875 38.15625 64.113281 38.15625 Z M 64.113281 38.15625 " fill-opacity="1" fill-rule="nonzero"/><path fill="#fff7ed" d="M 69.785156 46.023438 C 70.007812 47.007812 70.011719 47.980469 69.804688 48.914062 C 69.601562 49.820312 69.199219 50.671875 68.617188 51.453125 C 68.3125 51.859375 68.394531 52.433594 68.800781 52.738281 C 68.964844 52.859375 69.160156 52.921875 69.351562 52.921875 C 69.628906 52.921875 69.90625 52.792969 70.085938 52.554688 C 70.824219 51.5625 71.332031 50.476562 71.59375 49.316406 C 71.863281 48.117188 71.855469 46.875 71.574219 45.621094 C 71.464844 45.125 70.972656 44.816406 70.480469 44.925781 C 69.984375 45.039062 69.675781 45.527344 69.785156 46.023438 Z M 69.785156 46.023438 " fill-opacity="1" fill-rule="nonzero"/><path fill="#fff7ed" d="M 68.835938 43.632812 C 69.003906 43.925781 69.3125 44.09375 69.632812 44.09375 C 69.785156 44.09375 69.945312 44.050781 70.089844 43.96875 C 70.527344 43.714844 70.679688 43.15625 70.425781 42.71875 C 70.246094 42.410156 69.957031 41.941406 69.589844 41.476562 C 69.277344 41.078125 68.699219 41.007812 68.300781 41.324219 C 67.902344 41.636719 67.835938 42.210938 68.148438 42.609375 C 68.449219 42.992188 68.6875 43.378906 68.835938 43.632812 Z M 68.835938 43.632812 " fill-opacity="1" fill-rule="nonzero"/><g clip-path="url(#8fe560bc1a)"><path fill="#fff7ed" d="M 21.699219 95.746094 C 23.089844 95.746094 24.394531 95.207031 25.378906 94.222656 L 35.570312 84.03125 C 36.554688 83.046875 37.09375 81.742188 37.09375 80.351562 C 37.09375 79.527344 36.898438 78.730469 36.539062 78.015625 L 41.25 73.300781 C 47.285156 78.777344 55.03125 81.773438 63.234375 81.773438 C 71.988281 81.773438 80.214844 78.363281 86.402344 72.175781 C 92.589844 65.988281 95.996094 57.761719 95.996094 49.011719 C 95.996094 40.257812 92.589844 32.03125 86.402344 25.84375 C 80.214844 19.65625 71.988281 16.25 63.234375 16.25 C 54.484375 16.25 46.257812 19.65625 40.070312 25.84375 C 33.882812 32.03125 30.472656 40.257812 30.472656 49.011719 C 30.472656 57.214844 33.46875 64.960938 38.945312 70.996094 L 34.230469 75.707031 C 33.515625 75.347656 32.71875 75.152344 31.894531 75.152344 C 30.503906 75.152344 29.199219 75.691406 28.214844 76.675781 L 18.023438 86.867188 C 15.996094 88.894531 15.996094 92.195312 18.023438 94.222656 C 19.003906 95.207031 20.3125 95.746094 21.699219 95.746094 Z M 42.375 28.148438 C 47.949219 22.578125 55.355469 19.511719 63.234375 19.511719 C 71.117188 19.511719 78.523438 22.578125 84.09375 28.148438 C 89.667969 33.722656 92.734375 41.128906 92.734375 49.011719 C 92.734375 56.890625 89.667969 64.296875 84.09375 69.871094 C 78.523438 75.441406 71.117188 78.511719 63.234375 78.511719 C 55.355469 78.511719 47.949219 75.441406 42.375 69.871094 C 36.804688 64.296875 33.734375 56.890625 33.734375 49.011719 C 33.734375 41.128906 36.804688 33.722656 42.375 28.148438 Z M 20.328125 89.175781 L 30.523438 78.980469 C 30.886719 78.613281 31.375 78.414062 31.894531 78.414062 C 32.410156 78.414062 32.898438 78.613281 33.265625 78.980469 C 33.632812 79.347656 33.832031 79.832031 33.832031 80.351562 C 33.832031 80.871094 33.632812 81.355469 33.265625 81.722656 L 23.070312 91.917969 C 22.707031 92.285156 22.21875 92.484375 21.699219 92.484375 C 21.183594 92.484375 20.695312 92.285156 20.328125 91.917969 C 19.574219 91.160156 19.574219 89.929688 20.328125 89.175781 Z M 20.328125 89.175781 " fill-opacity="1" fill-rule="nonzero"/></g><path fill="#fff7ed" d="M 45.007812 59.261719 C 45.273438 58.828125 45.144531 58.265625 44.714844 57.996094 C 44.277344 57.726562 43.933594 57.421875 43.683594 57.089844 C 43.226562 56.480469 43.242188 55.703125 43.253906 55.136719 L 43.253906 55.078125 C 43.265625 54.570312 42.863281 54.152344 42.359375 54.140625 C 41.863281 54.125 41.433594 54.53125 41.421875 55.039062 L 41.421875 55.097656 C 41.40625 55.789062 41.375 57.070312 42.214844 58.191406 C 42.601562 58.703125 43.113281 59.164062 43.742188 59.554688 C 43.894531 59.648438 44.0625 59.691406 44.226562 59.691406 C 44.535156 59.691406 44.832031 59.539062 45.007812 59.261719 Z M 45.007812 59.261719 " fill-opacity="1" fill-rule="nonzero"/><path fill="#fff7ed" d="M 46.664062 60.714844 C 47.699219 60.960938 48.554688 61.039062 48.761719 61.039062 C 48.761719 61.039062 48.761719 61.039062 48.765625 61.039062 C 49.261719 61.035156 49.660156 60.636719 49.667969 60.136719 C 49.675781 59.636719 49.273438 59.222656 48.777344 59.203125 C 48.648438 59.199219 47.945312 59.136719 47.09375 58.929688 C 46.601562 58.8125 46.105469 59.117188 45.988281 59.609375 C 45.871094 60.101562 46.171875 60.597656 46.664062 60.714844 Z M 46.664062 60.714844 " fill-opacity="1" fill-rule="nonzero"/></svg>