<svg xmlns="http://www.w3.org/2000/svg" xmlns:xlink="http://www.w3.org/1999/xlink" width="150" zoomAndPan="magnify" viewBox="0 0 112.5 112.499997" height="150" preserveAspectRatio="xMidYMid meet" version="1.0"><defs><clipPath id="c52fd5c9d4"><path d="M 0 0 L 112.003906 0 L 112.003906 112.003906 L 0 112.003906 Z M 0 0 " clip-rule="nonzero"/></clipPath><clipPath id="aed883de96"><path d="M 56 0 C 25.074219 0 0 25.074219 0 56 C 0 86.929688 25.074219 112.003906 56 112.003906 C 86.929688 112.003906 112.003906 86.929688 112.003906 56 C 112.003906 25.074219 86.929688 0 56 0 Z M 56 0 " clip-rule="nonzero"/></clipPath><clipPath id="5c0ceeb2cc"><path d="M 69 19.324219 L 81 19.324219 L 81 37 L 69 37 Z M 69 19.324219 " clip-rule="nonzero"/></clipPath><clipPath id="6722b57631"><path d="M 12.804688 67 L 26 67 L 26 81 L 12.804688 81 Z M 12.804688 67 " clip-rule="nonzero"/></clipPath><clipPath id="c6a501e86c"><path d="M 25 68 L 52 68 L 52 92.492188 L 25 92.492188 Z M 25 68 " clip-rule="nonzero"/></clipPath></defs><g clip-path="url(#c52fd5c9d4)"><g clip-path="url(#aed883de96)"><path fill="#115e59" d="M 0 0 L 112.003906 0 L 112.003906 112.003906 L 0 112.003906 Z M 0 0 " fill-opacity="1" fill-rule="nonzero"/></g></g><path fill="#fff7ed" d="M 60.25 31.824219 C 61.160156 30.277344 62.324219 29.449219 63.71875 29.359375 C 65.144531 29.324219 66.375 30.050781 67.371094 31.527344 C 68.363281 33.042969 68.898438 34.859375 68.96875 36.917969 C 69.039062 39.027344 68.59375 40.796875 67.652344 42.160156 C 67.164062 42.953125 66.621094 43.554688 65.984375 43.996094 C 65.414062 44.394531 64.78125 44.601562 64.105469 44.621094 L 64.058594 44.621094 C 62.691406 44.65625 61.484375 43.921875 60.476562 42.449219 C 59.445312 41.03125 58.90625 39.226562 58.871094 37.101562 C 58.769531 35.09375 59.234375 33.3125 60.25 31.824219 " fill-opacity="1" fill-rule="nonzero"/><path fill="#fff7ed" d="M 67.183594 44.804688 C 70.574219 41.3125 73.902344 39.824219 77.039062 40.386719 L 77.09375 40.398438 C 77.503906 40.542969 77.90625 40.71875 78.292969 40.925781 C 80.972656 42.355469 83.046875 45.300781 84.457031 49.675781 C 84.933594 51.191406 85.34375 52.847656 85.683594 54.621094 C 86.078125 57.449219 86.035156 59.753906 85.554688 61.5 C 84.792969 63.667969 83.472656 64.792969 81.628906 64.839844 C 79.933594 64.882812 77.765625 63.976562 75.171875 62.136719 C 73.925781 61.140625 72.5625 60.65625 71.121094 60.695312 C 70.941406 60.699219 70.757812 60.710938 70.558594 60.734375 C 70.132812 60.761719 69.714844 60.78125 69.316406 60.792969 C 66.953125 60.851562 65.03125 60.59375 63.609375 60.027344 C 62.164062 59.484375 61.222656 58.640625 60.808594 57.523438 C 60.25 56.019531 60.636719 54.082031 62 51.59375 C 63.761719 48.820312 65.503906 46.539062 67.183594 44.804688 " fill-opacity="1" fill-rule="nonzero"/><g clip-path="url(#5c0ceeb2cc)"><path fill="#fff7ed" d="M 79.207031 33.800781 C 78.15625 35.582031 76.808594 36.503906 75.210938 36.546875 L 75.199219 36.546875 C 73.632812 36.53125 72.265625 35.675781 71.144531 34.019531 C 69.914062 32.394531 69.289062 30.394531 69.28125 28.074219 C 69.253906 25.695312 69.753906 23.65625 70.761719 22.011719 C 71.828125 20.277344 73.164062 19.378906 74.730469 19.339844 L 74.78125 19.339844 C 76.304688 19.316406 77.699219 20.125 78.925781 21.742188 L 78.945312 21.769531 C 79.996094 23.496094 80.546875 25.460938 80.621094 27.769531 C 80.667969 28.929688 80.550781 30.042969 80.273438 31.058594 C 80.058594 31.996094 79.703125 32.917969 79.207031 33.800781 " fill-opacity="1" fill-rule="nonzero"/></g><path fill="#fff7ed" d="M 85.660156 46.039062 C 86.160156 44.585938 87.097656 43.300781 88.519531 42.113281 C 88.636719 42.011719 88.765625 41.914062 88.890625 41.816406 C 88.964844 41.765625 89.035156 41.710938 89.105469 41.652344 C 90.660156 40.421875 92.363281 39.773438 94.160156 39.726562 L 94.210938 39.726562 C 95.992188 39.558594 97.328125 40.019531 98.210938 41.109375 C 99.0625 42.242188 99.179688 43.667969 98.554688 45.359375 C 97.90625 47.03125 96.738281 48.515625 95.085938 49.773438 C 94.132812 50.484375 93.1875 51.007812 92.273438 51.320312 C 91.511719 51.570312 90.757812 51.707031 90.050781 51.726562 C 90.046875 51.726562 90.046875 51.726562 90.046875 51.726562 C 89.945312 51.730469 89.839844 51.738281 89.742188 51.738281 C 88.945312 51.757812 88.222656 51.652344 87.582031 51.429688 C 86.921875 51.183594 86.378906 50.789062 85.976562 50.261719 C 85.144531 49.167969 85.039062 47.746094 85.660156 46.039062 " fill-opacity="1" fill-rule="nonzero"/><path fill="#fff7ed" d="M 92.679688 34.238281 C 92.035156 35.277344 91.335938 36.113281 90.558594 36.773438 C 89.851562 37.464844 89.042969 38.03125 88.144531 38.460938 L 88.003906 38.523438 C 87.765625 38.632812 87.539062 38.730469 87.304688 38.8125 C 86.710938 39.015625 86.136719 39.125 85.597656 39.140625 C 84.761719 39.160156 83.988281 38.953125 83.285156 38.511719 C 81.988281 37.632812 81.335938 36.164062 81.335938 34.167969 C 81.21875 32.140625 81.808594 30.132812 83.09375 28.191406 C 83.644531 27.355469 84.25 26.605469 84.898438 25.960938 C 85.777344 25.09375 86.6875 24.441406 87.6875 23.960938 C 89.535156 23.121094 91.164062 23.132812 92.515625 23.988281 C 93.78125 24.804688 94.496094 26.25 94.636719 28.28125 L 94.636719 28.316406 C 94.546875 30.300781 93.890625 32.292969 92.679688 34.238281 " fill-opacity="1" fill-rule="nonzero"/><g clip-path="url(#6722b57631)"><path fill="#fff7ed" d="M 14.164062 67.8125 C 15.285156 66.929688 16.707031 66.777344 18.386719 67.363281 C 20.089844 67.984375 21.609375 69.113281 22.898438 70.722656 C 24.21875 72.371094 24.921875 74.054688 24.984375 75.710938 C 25.074219 76.636719 24.996094 77.445312 24.75 78.175781 C 24.53125 78.839844 24.148438 79.386719 23.621094 79.800781 L 23.582031 79.832031 C 22.507812 80.679688 21.101562 80.8125 19.414062 80.234375 C 17.738281 79.714844 16.222656 78.59375 14.921875 76.914062 C 13.636719 75.367188 12.941406 73.660156 12.863281 71.863281 C 12.667969 70.082031 13.101562 68.71875 14.164062 67.8125 " fill-opacity="1" fill-rule="nonzero"/></g><g clip-path="url(#c6a501e86c)"><path fill="#fff7ed" d="M 31.441406 68.671875 L 31.492188 68.652344 C 31.90625 68.519531 32.335938 68.421875 32.769531 68.355469 C 35.773438 67.894531 39.199219 69.011719 42.945312 71.671875 C 44.238281 72.601562 45.5625 73.679688 46.894531 74.894531 C 48.902344 76.925781 50.253906 78.796875 50.910156 80.484375 C 51.601562 82.675781 51.21875 84.367188 49.769531 85.507812 C 48.4375 86.558594 46.160156 87.128906 42.976562 87.207031 C 41.386719 87.160156 40.003906 87.585938 38.871094 88.476562 C 38.730469 88.589844 38.589844 88.710938 38.445312 88.84375 C 38.121094 89.125 37.796875 89.390625 37.484375 89.636719 C 35.628906 91.097656 33.933594 92.039062 32.457031 92.441406 C 30.972656 92.867188 29.714844 92.757812 28.714844 92.109375 C 27.363281 91.238281 26.511719 89.457031 26.109375 86.644531 C 25.863281 83.375 25.890625 80.5 26.195312 78.109375 C 26.820312 73.28125 28.589844 70.097656 31.441406 68.671875 " fill-opacity="1" fill-rule="nonzero"/></g><path fill="#fff7ed" d="M 27.675781 66.6875 L 27.667969 66.695312 L 27.664062 66.695312 C 26.402344 67.621094 24.796875 67.757812 22.90625 67.105469 C 20.945312 66.535156 19.246094 65.308594 17.847656 63.453125 C 16.402344 61.5625 15.582031 59.628906 15.402344 57.710938 C 15.21875 55.6875 15.746094 54.167969 16.980469 53.195312 L 17.019531 53.167969 C 18.226562 52.238281 19.828125 52.054688 21.777344 52.613281 L 21.8125 52.621094 C 23.6875 53.375 25.304688 54.621094 26.75 56.425781 C 27.480469 57.328125 28.050781 58.285156 28.441406 59.265625 C 28.832031 60.144531 29.097656 61.097656 29.234375 62.097656 C 29.457031 64.15625 28.933594 65.699219 27.675781 66.6875 " fill-opacity="1" fill-rule="nonzero"/><path fill="#fff7ed" d="M 48.65625 69.964844 C 48.652344 69.96875 48.652344 69.96875 48.652344 69.96875 C 48.574219 70.035156 48.496094 70.097656 48.417969 70.164062 C 47.792969 70.652344 47.148438 71.003906 46.503906 71.203125 C 45.824219 71.40625 45.15625 71.414062 44.515625 71.230469 C 43.191406 70.855469 42.253906 69.78125 41.734375 68.042969 C 41.261719 66.574219 41.242188 64.984375 41.671875 63.183594 C 41.703125 63.03125 41.746094 62.878906 41.792969 62.722656 C 41.816406 62.640625 41.839844 62.554688 41.863281 62.464844 C 42.371094 60.546875 43.34375 59.011719 44.757812 57.898438 L 44.800781 57.867188 C 46.121094 56.667969 47.472656 56.238281 48.832031 56.585938 C 50.191406 56.980469 51.136719 58.050781 51.652344 59.777344 C 52.136719 61.507812 52.089844 63.394531 51.519531 65.386719 C 51.183594 66.53125 50.738281 67.511719 50.191406 68.3125 C 49.734375 68.96875 49.214844 69.527344 48.65625 69.964844 " fill-opacity="1" fill-rule="nonzero"/><path fill="#fff7ed" d="M 39.183594 60.484375 L 39.109375 60.617188 C 38.980469 60.847656 38.859375 61.0625 38.71875 61.265625 C 38.367188 61.785156 37.972656 62.21875 37.546875 62.550781 C 36.894531 63.070312 36.148438 63.363281 35.320312 63.433594 C 33.753906 63.503906 32.347656 62.71875 31.15625 61.121094 C 29.847656 59.570312 29.113281 57.605469 28.984375 55.28125 C 28.921875 54.285156 28.957031 53.320312 29.089844 52.414062 C 29.273438 51.195312 29.613281 50.128906 30.125 49.144531 C 31.105469 47.367188 32.414062 46.398438 34.007812 46.277344 C 35.511719 46.171875 36.949219 46.902344 38.277344 48.445312 L 38.300781 48.476562 C 39.421875 50.117188 40.085938 52.105469 40.285156 54.386719 C 40.390625 55.605469 40.332031 56.691406 40.101562 57.6875 C 39.949219 58.664062 39.640625 59.601562 39.183594 60.484375 " fill-opacity="1" fill-rule="nonzero"/></svg>