<svg xmlns="http://www.w3.org/2000/svg" xmlns:xlink="http://www.w3.org/1999/xlink" width="150" zoomAndPan="magnify" viewBox="0 0 112.5 112.499997" height="150" preserveAspectRatio="xMidYMid meet" version="1.0"><defs><clipPath id="7bdb5a1870"><path d="M 0 0 L 112.003906 0 L 112.003906 112.003906 L 0 112.003906 Z M 0 0 " clip-rule="nonzero"/></clipPath><clipPath id="45380a30f8"><path d="M 56 0 C 25.074219 0 0 25.074219 0 56 C 0 86.929688 25.074219 112.003906 56 112.003906 C 86.929688 112.003906 112.003906 86.929688 112.003906 56 C 112.003906 25.074219 86.929688 0 56 0 Z M 56 0 " clip-rule="nonzero"/></clipPath><clipPath id="36fd7085f6"><path d="M 32.328125 12 L 79.34375 12 L 79.34375 100.570312 L 32.328125 100.570312 Z M 32.328125 12 " clip-rule="nonzero"/></clipPath></defs><g clip-path="url(#7bdb5a1870)"><g clip-path="url(#45380a30f8)"><path fill="#115e59" d="M 0 0 L 112.003906 0 L 112.003906 112.003906 L 0 112.003906 Z M 0 0 " fill-opacity="1" fill-rule="nonzero"/></g></g><g clip-path="url(#36fd7085f6)"><path fill="#fff7ed" d="M 43.078125 32.71875 C 43.242188 32.582031 43.128906 32.394531 43.175781 32.242188 C 43.175781 32.21875 43.132812 32.175781 43.105469 32.132812 C 43.21875 31.765625 43.144531 31.644531 42.585938 29.933594 C 42.320312 29.113281 42.023438 29.035156 41.722656 26.765625 C 41.496094 25.054688 41.804688 24.128906 41.597656 23.960938 C 41.328125 24.308594 41.648438 24.484375 41.078125 26.070312 C 41.007812 26.253906 41.0625 26.070312 40.796875 27.179688 C 40.472656 28.558594 39.953125 29.640625 39.5 30.816406 C 39.207031 31.578125 38.3125 33.042969 37.625 33.277344 C 36.71875 33.589844 37.546875 31.894531 36.246094 30.265625 C 36.097656 30.082031 35.980469 29.859375 35.828125 29.671875 C 34.558594 28.152344 34.96875 28.800781 34.257812 27.65625 C 33.5625 26.546875 33.242188 26.140625 32.769531 23.8125 C 32.460938 22.296875 32.753906 22.414062 32.585938 22.066406 C 32.449219 21.785156 32.910156 21.515625 33.929688 20.417969 C 34.25 20.066406 34.71875 20.074219 35.375 19.5 C 35.882812 19.058594 36.9375 18.402344 37.757812 17.832031 C 39.175781 16.839844 38.390625 17.332031 39.15625 16.871094 C 41.339844 15.554688 41.445312 15.773438 41.988281 15.292969 C 42.523438 14.972656 43.070312 14.683594 43.636719 14.421875 C 44.628906 13.992188 44.601562 14.605469 45.824219 14.371094 C 47.617188 14.019531 51.023438 11.714844 55.339844 13.226562 C 56.425781 13.609375 57.421875 14.160156 58.328125 14.875 C 58.84375 15.304688 59.65625 15.863281 60.109375 16.308594 C 60.722656 16.90625 61.445312 17.3125 62.273438 17.53125 C 62.582031 17.601562 62.621094 17.53125 62.96875 17.796875 C 63.519531 18.246094 64.03125 18.734375 64.507812 19.261719 C 64.84375 19.691406 65.285156 19.964844 65.480469 20.195312 C 69.09375 24.449219 70.246094 25.929688 70.40625 26.128906 C 71.3125 27.207031 70.839844 26.25 71.847656 28.3125 C 72.011719 28.648438 71.832031 28.761719 71.847656 28.976562 C 71.929688 29.8125 70.199219 32.050781 70.199219 32.050781 C 69.800781 32.695312 68.515625 33.882812 67.277344 34.480469 C 66.832031 34.691406 66.121094 35 65.699219 35.214844 C 65.582031 35.285156 65.472656 35.371094 65.375 35.46875 C 64.449219 36.132812 64.628906 36.828125 64.351562 37.046875 C 64.3125 37.09375 64.292969 37.148438 64.292969 37.207031 C 64.261719 37.4375 63.972656 37.703125 63.714844 37.523438 C 63.324219 37.199219 63.054688 36.796875 62.910156 36.308594 C 62.410156 34.273438 62.175781 35.078125 61.886719 29.609375 C 61.886719 29.457031 61.847656 29.300781 61.84375 29.148438 C 61.808594 28.03125 61.84375 27.957031 61.789062 27.53125 C 61.605469 27.589844 61.589844 27.730469 61.445312 28.195312 C 60.835938 30.101562 60.894531 29.984375 60.738281 30.230469 C 60.308594 30.949219 60.351562 31.230469 60.179688 31.535156 C 60.167969 31.558594 60.144531 31.59375 60.148438 31.617188 C 60.195312 31.789062 60.074219 31.921875 60.054688 32.070312 C 60.007812 32.214844 59.953125 32.351562 59.878906 32.484375 C 59.84375 32.585938 59.824219 32.691406 59.789062 32.792969 C 59.703125 33.03125 59.566406 33.34375 59.554688 33.40625 C 59.507812 33.640625 59.390625 34.289062 59.390625 34.289062 C 59.367188 35.632812 59.417969 35.675781 59.269531 35.9375 C 58.976562 36.457031 59.269531 36.839844 59.207031 36.9375 C 59.144531 37.039062 59.175781 37.164062 59.199219 37.28125 C 59.285156 37.789062 59.4375 38.277344 59.664062 38.746094 C 61.820312 43.03125 62.492188 42.589844 63.507812 46.28125 C 63.566406 46.492188 63.921875 47.8125 63.9375 48.082031 C 63.957031 48.386719 64.085938 48.667969 64.210938 49.421875 C 64.257812 49.769531 64.382812 50.089844 64.589844 50.375 C 64.785156 50.640625 64.933594 50.941406 65.109375 51.222656 C 67.234375 54.558594 67.816406 54.980469 68.714844 56.851562 C 69.355469 58.179688 70.039062 59.890625 70.261719 60.296875 C 70.8125 61.289062 71.039062 62.839844 71.039062 62.839844 C 71.453125 64.8125 71.445312 63.757812 71.710938 65.925781 C 71.917969 67.605469 72.230469 67.34375 72.199219 68.378906 C 72.152344 70.003906 72.136719 70.496094 72.710938 71.019531 C 73.082031 71.371094 73.488281 71.671875 73.9375 71.921875 C 74.503906 72.203125 74.917969 72.628906 75.179688 73.207031 C 75.855469 74.753906 75.375 74.882812 75.765625 75.929688 C 76.207031 77.117188 77.023438 77.484375 77.316406 79.640625 C 77.652344 82.101562 75.175781 87.019531 74.636719 88.335938 C 73.613281 90.855469 73.589844 90.789062 73.050781 91.730469 C 72.761719 92.226562 72.929688 92.191406 72.613281 93.011719 C 72.210938 94.074219 72.183594 94.355469 72.433594 95.507812 C 72.464844 95.703125 72.582031 95.8125 72.777344 95.835938 C 73.457031 95.957031 75.78125 96.535156 78 96.296875 C 78.285156 96.265625 78.558594 96.300781 78.824219 96.410156 C 79.617188 96.734375 79.703125 96.765625 79.566406 97.070312 C 78.789062 98.789062 75.582031 98.375 73.246094 98.691406 C 72.789062 98.753906 72.628906 98.621094 72.53125 98.871094 C 72.113281 99.972656 71.039062 100.003906 65.84375 99.789062 C 65.519531 99.773438 65.6875 100.15625 65.027344 100.167969 C 62.40625 100.21875 61.617188 100.277344 58.167969 100.257812 C 57.789062 100.257812 57.820312 100.207031 56.648438 100.140625 C 56.304688 100.125 55.957031 100.109375 55.609375 100.085938 C 55.351562 100.066406 55.136719 99.960938 54.960938 99.769531 C 54.785156 99.578125 54.695312 99.355469 54.695312 99.09375 C 54.695312 99.007812 54.683594 98.921875 54.671875 98.8125 C 54.101562 98.769531 55.699219 98.8125 48.121094 98.769531 C 43.523438 98.742188 43.695312 98.667969 43.621094 98.90625 C 43.320312 99.890625 42.257812 99.566406 40.457031 99.558594 C 34.800781 99.535156 35.804688 99.546875 33.300781 99.289062 C 32.445312 99.199219 32.75 98.679688 32.480469 98.359375 C 32.308594 98.164062 32.714844 97.921875 32.71875 97.667969 C 32.734375 97.191406 33.039062 96.949219 33.730469 95.957031 C 34.109375 95.410156 34.636719 94.59375 34.878906 94.28125 C 35.394531 93.617188 35.8125 94 36.050781 93.390625 C 36.191406 93.023438 36.9375 92.128906 37.003906 89.523438 C 37.042969 88.085938 37.050781 88.46875 37.261719 87.542969 C 37.445312 86.085938 37.523438 84.621094 37.496094 83.15625 C 37.488281 82.492188 37.355469 80.839844 37.527344 80.222656 C 37.671875 79.714844 37.753906 77.734375 37.746094 77.4375 C 37.683594 75.535156 37.730469 76.082031 37.710938 75.5 C 37.710938 75.238281 37.617188 74.84375 37.625 74.777344 C 37.640625 74.410156 37.632812 74.042969 37.597656 73.675781 C 37.582031 73.15625 37.597656 72.632812 37.5625 72.113281 C 37.503906 71.101562 37.273438 69.964844 37.398438 69.011719 C 37.742188 66.460938 37.09375 67.101562 37.898438 64.703125 C 38.050781 64.25 38.308594 64.070312 38.222656 63.679688 C 38.144531 63.3125 38.15625 62.828125 37.917969 62.0625 C 37.351562 60.472656 37.113281 58.835938 37.203125 57.148438 C 37.203125 57.148438 37.089844 56.128906 37.386719 51.789062 C 37.421875 51.265625 37.855469 49.085938 37.910156 48.925781 C 38.707031 46.695312 38.496094 47.292969 38.886719 46.363281 C 39.34375 45.273438 39.273438 45.417969 39.292969 45.386719 C 41.222656 42.074219 41.464844 42.015625 41.527344 41.355469 C 41.589844 41.054688 41.664062 40.757812 41.757812 40.464844 C 41.835938 40.113281 42.179688 39.988281 42.761719 37.929688 C 42.855469 37.675781 42.929688 37.414062 42.984375 37.148438 C 43.023438 36.8125 43.0625 36.476562 43.132812 36.144531 C 43.203125 35.746094 43.191406 35.351562 43.105469 34.957031 C 43.082031 34.152344 43.203125 33.835938 43.105469 33.4375 C 43.078125 33.324219 43.082031 33.210938 43.117188 33.101562 C 43.152344 32.984375 43.019531 32.867188 43.128906 32.761719 Z M 44.308594 87.195312 C 44.292969 87.234375 44.285156 87.273438 44.277344 87.316406 C 44.222656 88.914062 44.152344 88.792969 44.113281 89.179688 C 43.820312 91.875 44.089844 92.09375 43.976562 92.503906 C 43.914062 92.796875 43.960938 93.074219 44.117188 93.332031 C 44.195312 93.488281 44.234375 93.5 44.414062 93.46875 C 45.160156 93.34375 45.175781 93.46875 45.628906 93.285156 C 46.835938 92.824219 47.058594 92.746094 47.535156 92.660156 C 47.867188 92.597656 47.792969 92.351562 48.023438 92.191406 C 48.378906 91.945312 48.023438 91.695312 48.140625 91.066406 C 48.195312 90.769531 48.050781 90.648438 47.085938 89.808594 C 46.46875 89.269531 46.734375 89.675781 45.941406 89.035156 C 45.628906 88.785156 45.289062 88.566406 45.039062 88.230469 C 44.234375 87.144531 44.464844 87.160156 44.308594 87.195312 Z M 56.320312 93.988281 C 56.421875 93.882812 56.398438 94.027344 56.589844 93.136719 C 56.617188 93.011719 56.539062 92.976562 56.066406 92.683594 C 56.007812 92.644531 55.945312 92.617188 55.847656 92.566406 C 55.84375 93.121094 56.070312 93.542969 56.320312 93.988281 Z M 56.320312 93.988281 " fill-opacity="1" fill-rule="nonzero"/></g></svg>