<svg xmlns="http://www.w3.org/2000/svg" xmlns:xlink="http://www.w3.org/1999/xlink" width="150" zoomAndPan="magnify" viewBox="0 0 112.5 112.499997" height="150" preserveAspectRatio="xMidYMid meet" version="1.0"><defs><clipPath id="b1f5b43f63"><path d="M 0 0 L 112.003906 0 L 112.003906 112.003906 L 0 112.003906 Z M 0 0 " clip-rule="nonzero"/></clipPath><clipPath id="8285fc328b"><path d="M 56 0 C 25.074219 0 0 25.074219 0 56 C 0 86.929688 25.074219 112.003906 56 112.003906 C 86.929688 112.003906 112.003906 86.929688 112.003906 56 C 112.003906 25.074219 86.929688 0 56 0 Z M 56 0 " clip-rule="nonzero"/></clipPath><clipPath id="395f313def"><path d="M 43 16.410156 L 68 16.410156 L 68 41 L 43 41 Z M 43 16.410156 " clip-rule="nonzero"/></clipPath><clipPath id="2bf36ff332"><path d="M 13.140625 56 L 25 56 L 25 71 L 13.140625 71 Z M 13.140625 56 " clip-rule="nonzero"/></clipPath><clipPath id="aa5c9b3e38"><path d="M 20 41 L 84 41 L 84 95.527344 L 20 95.527344 Z M 20 41 " clip-rule="nonzero"/></clipPath></defs><g clip-path="url(#b1f5b43f63)"><g clip-path="url(#8285fc328b)"><path fill="#115e59" d="M 0 0 L 112.003906 0 L 112.003906 112.003906 L 0 112.003906 Z M 0 0 " fill-opacity="1" fill-rule="nonzero"/></g></g><g clip-path="url(#395f313def)"><path fill="#fff7ed" d="M 43.988281 16.734375 C 43.648438 17.078125 43.65625 17.636719 44 17.972656 L 67.1875 40.632812 C 67.214844 40.554688 67.242188 40.480469 67.273438 40.40625 C 67.476562 39.917969 67.621094 39.347656 67.746094 38.722656 L 45.226562 16.71875 C 44.882812 16.378906 44.324219 16.386719 43.988281 16.734375 " fill-opacity="1" fill-rule="nonzero"/></g><g clip-path="url(#2bf36ff332)"><path fill="#fff7ed" d="M 21.914062 58.75 C 21.929688 58.742188 21.921875 58.746094 21.910156 58.753906 Z M 14.035156 70.542969 C 14.589844 70.386719 15.367188 69.996094 16.0625 69.25 C 16.765625 68.515625 17.367188 67.480469 17.859375 66.328125 C 18.359375 65.175781 18.761719 63.898438 19.195312 62.664062 L 19.363281 62.210938 C 19.417969 62.066406 19.480469 61.898438 19.539062 61.761719 C 19.601562 61.621094 19.660156 61.476562 19.726562 61.335938 C 19.796875 61.199219 19.867188 61.0625 19.9375 60.925781 C 20.230469 60.386719 20.574219 59.902344 20.960938 59.503906 C 21.054688 59.402344 21.152344 59.300781 21.246094 59.234375 L 21.382812 59.117188 C 21.429688 59.078125 21.46875 59.039062 21.539062 58.996094 C 21.660156 58.917969 21.785156 58.835938 21.90625 58.757812 C 21.894531 58.765625 21.878906 58.773438 21.882812 58.769531 L 21.894531 58.765625 L 21.914062 58.757812 L 21.949219 58.734375 L 22.03125 58.695312 C 22.085938 58.667969 22.144531 58.644531 22.199219 58.621094 C 22.660156 58.421875 23.144531 58.28125 23.578125 58.199219 C 23.773438 58.160156 23.957031 58.136719 24.132812 58.125 C 24.230469 57.589844 24.359375 57.0625 24.519531 56.539062 C 24.097656 56.5625 23.671875 56.636719 23.230469 56.761719 C 22.703125 56.910156 22.164062 57.113281 21.605469 57.410156 C 21.535156 57.449219 21.464844 57.484375 21.394531 57.527344 L 21.285156 57.59375 L 21.144531 57.6875 C 21.027344 57.777344 20.914062 57.867188 20.796875 57.960938 C 20.738281 58 20.671875 58.066406 20.605469 58.128906 L 20.410156 58.320312 C 20.273438 58.445312 20.167969 58.578125 20.0625 58.710938 C 19.628906 59.242188 19.277344 59.839844 19 60.46875 C 18.9375 60.625 18.871094 60.785156 18.804688 60.945312 C 18.746094 61.109375 18.691406 61.273438 18.636719 61.4375 C 18.582031 61.609375 18.539062 61.75 18.492188 61.921875 L 18.359375 62.40625 C 18.023438 63.695312 17.734375 64.972656 17.34375 66.128906 C 16.957031 67.28125 16.46875 68.316406 15.859375 69.070312 C 15.253906 69.832031 14.542969 70.273438 14.007812 70.472656 C 13.878906 70.53125 13.753906 70.566406 13.648438 70.597656 C 13.539062 70.632812 13.449219 70.652344 13.371094 70.667969 C 13.222656 70.699219 13.140625 70.71875 13.140625 70.71875 C 13.140625 70.71875 13.222656 70.707031 13.375 70.6875 C 13.453125 70.679688 13.546875 70.664062 13.65625 70.640625 C 13.769531 70.617188 13.894531 70.589844 14.035156 70.542969 " fill-opacity="1" fill-rule="nonzero"/></g><path fill="#fff7ed" d="M 47.5625 78.648438 C 47.324219 78.652344 47.085938 78.660156 46.839844 78.660156 C 45.683594 78.660156 44.640625 78.597656 43.722656 78.546875 C 43 78.503906 42.375 78.46875 41.828125 78.46875 C 40.871094 78.46875 40.539062 78.59375 40.425781 78.664062 C 37.851562 80.335938 35.761719 81.539062 32.433594 82.121094 C 32.328125 86.210938 33.136719 91.296875 34.457031 94.570312 C 35.179688 94.640625 35.933594 94.667969 36.660156 94.667969 C 39.027344 94.667969 41.132812 94.386719 41.132812 94.386719 C 41.8125 90.558594 38.246094 90.347656 37.761719 88.808594 C 37.019531 86.46875 36.691406 82.875 38.835938 80.5625 C 43.089844 80.5 45.429688 79.789062 47.5625 78.648438 " fill-opacity="1" fill-rule="nonzero"/><path fill="#fff7ed" d="M 82.867188 63.613281 C 81.617188 66.144531 79.960938 68.359375 77.597656 70.726562 C 74.519531 73.808594 73.609375 78.753906 73.390625 82.355469 C 73.351562 82.976562 73.25 83.742188 73.136719 84.558594 C 72.996094 85.59375 72.792969 87.101562 72.785156 88.230469 C 72.835938 88.683594 72.894531 89.144531 72.976562 89.589844 C 73.125 89.886719 73.382812 90.105469 73.835938 90.46875 C 74.390625 90.910156 75.109375 91.488281 75.632812 92.453125 C 75.769531 92.453125 75.914062 92.453125 76.066406 92.453125 C 77.957031 92.453125 80.769531 92.445312 81.769531 92.394531 C 81.703125 88.925781 79.355469 89.171875 78.511719 87.171875 C 77.761719 85.390625 78.710938 81.21875 78.832031 79.234375 C 79.089844 75.023438 83.328125 71.609375 82.867188 63.613281 " fill-opacity="1" fill-rule="nonzero"/><path fill="#fff7ed" d="M 85.921875 28.09375 C 84.40625 25.925781 81.347656 26.933594 80.214844 24.230469 C 79.40625 22.308594 80.808594 17.464844 77.980469 17.347656 C 76.988281 19.101562 75.464844 21.257812 74.480469 23.261719 C 69.472656 30.003906 70.347656 36.152344 69.210938 40.15625 C 69.199219 40.1875 69.191406 40.21875 69.183594 40.25 C 69.199219 40.257812 69.21875 40.257812 69.234375 40.265625 L 69.390625 40.332031 L 83.910156 46.441406 C 83.996094 45.859375 84.105469 45.285156 84.246094 44.722656 C 85.277344 44 86.558594 43.847656 87.910156 43.847656 C 88.921875 43.847656 89.976562 43.933594 90.996094 43.933594 C 92.203125 43.933594 93.363281 43.8125 94.347656 43.28125 C 96.425781 42.160156 98.855469 38.023438 98.324219 35.808594 C 97.746094 34.546875 91.828125 36.550781 85.921875 28.09375 " fill-opacity="1" fill-rule="nonzero"/><g clip-path="url(#aa5c9b3e38)"><path fill="#fff7ed" d="M 83.714844 48.214844 C 83.628906 48.203125 83.539062 48.1875 83.453125 48.152344 L 68.636719 41.917969 C 67.824219 45.546875 69.519531 50.308594 43.179688 50.308594 C 41.875 50.308594 40.5 50.296875 39.050781 50.273438 C 38.644531 50.265625 38.242188 50.261719 37.847656 50.261719 C 33.230469 50.261719 29.253906 50.859375 26.917969 55.292969 C 26.636719 55.828125 26.414062 56.375 26.234375 56.9375 C 26.003906 57.652344 25.847656 58.390625 25.746094 59.140625 C 25.25 62.742188 25.945312 66.699219 25.527344 70.390625 C 24.890625 75.953125 21.671875 75.339844 21.109375 80.414062 C 20.605469 84.9375 21.496094 91.511719 23.109375 95.515625 C 23.871094 95.589844 24.664062 95.617188 25.433594 95.617188 C 27.925781 95.617188 30.140625 95.320312 30.140625 95.320312 C 30.855469 91.292969 27.101562 91.070312 26.589844 89.449219 C 25.808594 86.980469 25.460938 83.195312 27.722656 80.761719 C 28.855469 80.746094 29.859375 80.683594 30.765625 80.585938 C 31.074219 80.550781 31.371094 80.511719 31.65625 80.46875 C 31.964844 80.421875 32.261719 80.371094 32.550781 80.3125 C 35.460938 79.730469 37.261719 78.625 39.472656 77.191406 C 40.046875 76.820312 40.835938 76.714844 41.828125 76.714844 C 43.152344 76.714844 44.835938 76.902344 46.839844 76.902344 C 47.433594 76.902344 48.050781 76.886719 48.699219 76.84375 C 48.882812 76.832031 49.066406 76.820312 49.242188 76.808594 C 49.777344 76.773438 50.273438 76.738281 50.730469 76.707031 C 51.058594 76.679688 51.367188 76.660156 51.660156 76.636719 C 57.953125 76.148438 57.015625 75.828125 64.34375 74.078125 C 65.441406 78.910156 64.867188 83.726562 65.371094 88.878906 C 65.542969 90.640625 65.699219 94.652344 67.03125 95.46875 C 67.03125 95.46875 67.804688 95.472656 68.871094 95.472656 C 70.765625 95.472656 73.574219 95.460938 74.574219 95.410156 C 74.566406 94.949219 74.515625 94.550781 74.433594 94.207031 C 74.351562 93.863281 74.242188 93.574219 74.105469 93.320312 C 73.738281 92.621094 73.199219 92.203125 72.671875 91.78125 C 72.144531 91.359375 71.628906 90.925781 71.320312 90.191406 C 71.304688 90.160156 71.296875 90.121094 71.285156 90.085938 C 71.113281 89.625 71.042969 89.023438 71.035156 88.347656 C 71.019531 86.804688 71.332031 84.882812 71.519531 83.417969 C 71.574219 82.980469 71.617188 82.582031 71.640625 82.25 C 71.734375 80.71875 71.929688 79.179688 72.257812 77.6875 C 72.949219 74.542969 74.222656 71.621094 76.355469 69.484375 C 79.136719 66.699219 81.058594 63.996094 82.414062 60.160156 C 82.480469 59.96875 82.550781 59.777344 82.613281 59.582031 C 82.640625 59.496094 82.667969 59.414062 82.691406 59.328125 C 82.78125 59.046875 82.855469 58.765625 82.925781 58.480469 C 83.71875 55.203125 83.449219 51.644531 83.714844 48.214844 " fill-opacity="1" fill-rule="nonzero"/></g></svg>