<svg xmlns="http://www.w3.org/2000/svg" xmlns:xlink="http://www.w3.org/1999/xlink" width="150" zoomAndPan="magnify" viewBox="0 0 112.5 112.499997" height="150" preserveAspectRatio="xMidYMid meet" version="1.0"><defs><clipPath id="b8dde21df7"><path d="M 0 0 L 112.003906 0 L 112.003906 112.003906 L 0 112.003906 Z M 0 0 " clip-rule="nonzero"/></clipPath><clipPath id="9ec853ec7a"><path d="M 56 0 C 25.074219 0 0 25.074219 0 56 C 0 86.929688 25.074219 112.003906 56 112.003906 C 86.929688 112.003906 112.003906 86.929688 112.003906 56 C 112.003906 25.074219 86.929688 0 56 0 Z M 56 0 " clip-rule="nonzero"/></clipPath><clipPath id="20af543332"><path d="M 13.144531 52 L 65 52 L 65 86 L 13.144531 86 Z M 13.144531 52 " clip-rule="nonzero"/></clipPath></defs><g clip-path="url(#b8dde21df7)"><g clip-path="url(#9ec853ec7a)"><path fill="#115e59" d="M 0 0 L 112.003906 0 L 112.003906 112.003906 L 0 112.003906 Z M 0 0 " fill-opacity="1" fill-rule="nonzero"/></g></g><path fill="#fff7ed" d="M 84.679688 30.25 C 83.117188 33.851562 78.941406 35.507812 75.332031 33.953125 C 71.738281 32.40625 70.085938 28.222656 71.640625 24.632812 C 73.199219 21.03125 77.371094 19.375 80.964844 20.925781 C 84.570312 22.480469 86.222656 26.652344 84.679688 30.25 Z M 84.679688 30.25 " fill-opacity="1" fill-rule="evenodd"/><path fill="#fff7ed" d="M 75.789062 38.496094 C 75.132812 38.496094 74.488281 38.707031 73.957031 39.101562 L 65.832031 45.140625 C 65.210938 45.605469 64.785156 46.277344 64.644531 47.039062 L 62.011719 56.933594 C 61.234375 60.964844 67.292969 62.125 68.070312 58.09375 L 70.472656 49.378906 L 72.609375 47.789062 L 72.609375 57.648438 C 72.609375 58.449219 72.890625 59.230469 73.382812 59.863281 L 82.640625 71.6875 L 84.457031 82.6875 C 85.03125 87.695312 92.625 86.457031 91.570312 81.515625 L 89.628906 69.601562 C 89.53125 69.003906 89.285156 68.4375 88.910156 67.957031 L 81.871094 58.992188 L 81.90625 49.800781 L 84.324219 53.261719 C 84.574219 53.609375 84.890625 53.902344 85.253906 54.121094 L 91.875 58.171875 C 95.382812 60.3125 98.59375 55.054688 95.085938 52.910156 L 89.011719 49.199219 L 82.449219 39.808594 C 81.871094 38.984375 80.929688 38.496094 79.929688 38.496094 Z M 75.789062 38.496094 " fill-opacity="1" fill-rule="nonzero"/><path fill="#fff7ed" d="M 73.105469 62.953125 L 71.574219 68.667969 L 63.878906 80.078125 C 60.835938 84.132812 67.25 88.457031 69.863281 84.109375 L 77.902344 72.207031 C 78.359375 71.527344 78.679688 71.003906 78.679688 70.0625 Z M 73.105469 62.953125 " fill-opacity="1" fill-rule="nonzero"/><g clip-path="url(#20af543332)"><path fill="#fff7ed" d="M 43.480469 52.679688 C 43 52.679688 42.453125 53 42.203125 53.632812 L 39.484375 60.664062 C 38.894531 62.371094 37.59375 64.316406 34.222656 64.574219 C 29.042969 65.074219 26.308594 64.027344 23.332031 64.191406 C 21.101562 63.363281 19.292969 61.820312 17.761719 59.4375 C 17.402344 58.855469 16.675781 58.617188 16.042969 58.875 C 15.214844 59.207031 14.902344 60.214844 15.394531 60.953125 C 16.535156 62.734375 17.921875 64.179688 19.5 65.28125 C 17.382812 66.503906 16.730469 68.292969 16.472656 70.417969 C 16.210938 72.558594 16.464844 76.269531 13.421875 79.207031 C 13.214844 79.414062 13.101562 79.710938 13.179688 79.992188 L 15.214844 85.726562 L 18.839844 85.726562 C 18.839844 84.933594 18.320312 84.230469 17.5625 83.996094 L 16.460938 80.089844 C 17.9375 79.664062 19.679688 78.355469 20.394531 76.890625 L 19.988281 80.199219 L 21.644531 85.921875 L 25.265625 85.921875 C 25.265625 85.125 24.746094 84.421875 23.988281 84.195312 L 22.980469 80.089844 C 24.628906 79.644531 26.167969 77.242188 26.65625 75.53125 C 28.441406 76.433594 30.535156 77.066406 32.933594 77.421875 L 33.820312 85.921875 L 37.449219 85.921875 C 37.449219 85.339844 37.167969 84.796875 36.695312 84.457031 L 37.121094 77.773438 C 37.566406 77.785156 38.035156 77.78125 38.5 77.773438 L 39.292969 85.921875 L 42.921875 85.921875 C 42.921875 85.203125 42.496094 84.550781 41.832031 84.261719 L 42.125 79.628906 C 42.320312 76.601562 43.816406 74.664062 44.332031 72.824219 C 44.542969 72.074219 44.5 71.417969 44.386719 70.777344 C 41.9375 69.738281 39.800781 68.25 38.289062 66.585938 L 38.9375 65.992188 C 41.71875 68.671875 46.046875 70.828125 50.707031 70.988281 C 55.734375 71.167969 61.121094 68.824219 64.660156 62.367188 L 62.707031 61.304688 C 59.507812 67.144531 55.105469 68.921875 50.777344 68.773438 C 48.453125 68.691406 46.152344 67.984375 44.164062 66.972656 C 44.445312 65.929688 45.089844 65.304688 46.4375 65.292969 L 50.007812 65.253906 C 51.855469 65.027344 52.535156 63.460938 52.855469 62.566406 C 53.238281 61.527344 52.855469 60.835938 52.074219 60.632812 C 49.925781 60.054688 49.382812 59.804688 48.484375 58.382812 C 47.855469 57.382812 47.277344 56.792969 46.492188 56.511719 L 46.492188 54.714844 C 46.492188 53.65625 45.097656 53.648438 44.671875 54.714844 L 44.378906 55.457031 L 44.378906 53.628906 C 44.375 53 43.957031 52.6875 43.480469 52.679688 Z M 43.480469 52.679688 " fill-opacity="1" fill-rule="nonzero"/></g></svg>