<svg xmlns="http://www.w3.org/2000/svg" xmlns:xlink="http://www.w3.org/1999/xlink" width="150" zoomAndPan="magnify" viewBox="0 0 112.5 112.499997" height="150" preserveAspectRatio="xMidYMid meet" version="1.0"><defs><clipPath id="400730f6dd"><path d="M 0 0 L 112.003906 0 L 112.003906 112.003906 L 0 112.003906 Z M 0 0 " clip-rule="nonzero"/></clipPath><clipPath id="2461da26ce"><path d="M 56 0 C 25.074219 0 0 25.074219 0 56 C 0 86.929688 25.074219 112.003906 56 112.003906 C 86.929688 112.003906 112.003906 86.929688 112.003906 56 C 112.003906 25.074219 86.929688 0 56 0 Z M 56 0 " clip-rule="nonzero"/></clipPath><clipPath id="6078f75c40"><path d="M 10.003906 50 L 66 50 L 66 87 L 10.003906 87 Z M 10.003906 50 " clip-rule="nonzero"/></clipPath></defs><g clip-path="url(#400730f6dd)"><g clip-path="url(#2461da26ce)"><path fill="#115e59" d="M 0 0 L 112.003906 0 L 112.003906 112.003906 L 0 112.003906 Z M 0 0 " fill-opacity="1" fill-rule="nonzero"/></g></g><path fill="#fff7ed" d="M 86.964844 26.515625 C 85.289062 30.390625 80.792969 32.171875 76.914062 30.5 C 73.046875 28.835938 71.265625 24.335938 72.9375 20.472656 C 74.617188 16.597656 79.105469 14.8125 82.972656 16.484375 C 86.851562 18.15625 88.628906 22.644531 86.964844 26.515625 Z M 86.964844 26.515625 " fill-opacity="1" fill-rule="evenodd"/><path fill="#fff7ed" d="M 77.40625 35.386719 C 76.695312 35.386719 76.003906 35.613281 75.429688 36.039062 L 66.691406 42.535156 C 66.023438 43.035156 65.566406 43.761719 65.410156 44.578125 L 62.582031 55.222656 C 61.746094 59.5625 68.261719 60.808594 69.097656 56.46875 L 71.683594 47.097656 L 73.980469 45.386719 L 73.980469 55.992188 C 73.980469 56.855469 74.28125 57.695312 74.816406 58.375 L 84.773438 71.097656 L 86.726562 82.929688 C 87.347656 88.320312 95.515625 86.988281 94.382812 81.671875 L 92.292969 68.855469 C 92.1875 68.207031 91.925781 67.601562 91.519531 67.082031 L 83.945312 57.441406 L 83.984375 47.550781 L 86.585938 51.273438 C 86.855469 51.644531 87.195312 51.960938 87.585938 52.195312 L 94.707031 56.554688 C 98.480469 58.859375 101.9375 53.199219 98.164062 50.894531 L 91.628906 46.902344 L 84.566406 36.800781 C 83.945312 35.910156 82.933594 35.386719 81.859375 35.386719 Z M 77.40625 35.386719 " fill-opacity="1" fill-rule="nonzero"/><path fill="#fff7ed" d="M 74.515625 61.699219 L 72.871094 67.847656 L 64.589844 80.125 C 61.316406 84.484375 68.214844 89.140625 71.027344 84.460938 L 79.679688 71.652344 C 80.167969 70.925781 80.511719 70.359375 80.511719 69.347656 Z M 74.515625 61.699219 " fill-opacity="1" fill-rule="nonzero"/><g clip-path="url(#6078f75c40)"><path fill="#fff7ed" d="M 42.644531 50.648438 C 42.125 50.648438 41.539062 50.992188 41.269531 51.667969 L 38.34375 59.238281 C 37.710938 61.070312 36.308594 63.164062 32.683594 63.441406 C 27.109375 63.980469 24.167969 62.855469 20.964844 63.03125 C 18.566406 62.140625 16.621094 60.480469 14.976562 57.914062 C 14.585938 57.289062 13.800781 57.035156 13.121094 57.308594 C 12.230469 57.667969 11.894531 58.753906 12.425781 59.546875 C 13.652344 61.460938 15.144531 63.015625 16.839844 64.203125 C 14.5625 65.519531 13.863281 67.445312 13.585938 69.730469 C 13.304688 72.03125 13.578125 76.027344 10.304688 79.1875 C 10.082031 79.410156 9.960938 79.726562 10.042969 80.03125 L 12.230469 86.203125 L 16.132812 86.203125 C 16.132812 85.347656 15.574219 84.59375 14.757812 84.335938 L 13.574219 80.136719 C 15.164062 79.679688 17.035156 78.269531 17.804688 76.695312 L 17.367188 80.253906 L 19.152344 86.410156 L 23.046875 86.410156 C 23.046875 85.554688 22.488281 84.796875 21.671875 84.550781 L 20.585938 80.136719 C 22.359375 79.660156 24.015625 77.070312 24.542969 75.234375 C 26.460938 76.203125 28.714844 76.882812 31.292969 77.265625 L 32.25 86.410156 L 36.152344 86.410156 C 36.152344 85.785156 35.851562 85.199219 35.34375 84.832031 L 35.800781 77.644531 C 36.28125 77.65625 36.785156 77.652344 37.285156 77.644531 L 38.140625 86.410156 L 42.042969 86.410156 C 42.042969 85.636719 41.582031 84.933594 40.871094 84.625 L 41.1875 79.636719 C 41.394531 76.382812 43.003906 74.300781 43.558594 72.320312 C 43.789062 71.511719 43.738281 70.804688 43.617188 70.117188 C 40.984375 69 38.6875 67.394531 37.058594 65.609375 L 37.757812 64.96875 C 40.75 67.851562 45.40625 70.171875 50.417969 70.34375 C 55.828125 70.535156 61.621094 68.015625 65.429688 61.070312 L 63.328125 59.921875 C 59.886719 66.210938 55.148438 68.121094 50.492188 67.960938 C 47.992188 67.875 45.519531 67.113281 43.375 66.023438 C 43.679688 64.902344 44.375 64.230469 45.824219 64.214844 L 49.664062 64.171875 C 51.652344 63.933594 52.386719 62.246094 52.730469 61.285156 C 53.140625 60.164062 52.730469 59.421875 51.886719 59.203125 C 49.578125 58.582031 48.992188 58.3125 48.027344 56.78125 C 47.347656 55.703125 46.726562 55.070312 45.886719 54.769531 L 45.886719 52.835938 C 45.886719 51.695312 44.382812 51.6875 43.925781 52.835938 L 43.609375 53.636719 L 43.609375 51.667969 C 43.605469 50.992188 43.15625 50.652344 42.644531 50.648438 Z M 42.644531 50.648438 " fill-opacity="1" fill-rule="nonzero"/></g></svg>