<svg xmlns="http://www.w3.org/2000/svg" xmlns:xlink="http://www.w3.org/1999/xlink" width="150" zoomAndPan="magnify" viewBox="0 0 112.5 112.499997" height="150" preserveAspectRatio="xMidYMid meet" version="1.0"><defs><clipPath id="d6fe9258de"><path d="M 0 0 L 112.003906 0 L 112.003906 112.003906 L 0 112.003906 Z M 0 0 " clip-rule="nonzero"/></clipPath><clipPath id="8b32696271"><path d="M 56 0 C 25.074219 0 0 25.074219 0 56 C 0 86.929688 25.074219 112.003906 56 112.003906 C 86.929688 112.003906 112.003906 86.929688 112.003906 56 C 112.003906 25.074219 86.929688 0 56 0 Z M 56 0 " clip-rule="nonzero"/></clipPath><clipPath id="46645ba64e"><path d="M 7.054688 31.347656 L 104.867188 31.347656 L 104.867188 80.589844 L 7.054688 80.589844 Z M 7.054688 31.347656 " clip-rule="nonzero"/></clipPath></defs><g clip-path="url(#d6fe9258de)"><g clip-path="url(#8b32696271)"><path fill="#115e59" d="M 0 0 L 112.003906 0 L 112.003906 112.003906 L 0 112.003906 Z M 0 0 " fill-opacity="1" fill-rule="nonzero"/></g></g><g clip-path="url(#46645ba64e)"><path fill="#fff7ed" d="M 22.371094 54.730469 C 22.867188 54.277344 23.386719 53.84375 23.949219 53.410156 C 24.253906 53.195312 24.535156 52.976562 24.859375 52.761719 C 24.078125 52.414062 23.320312 51.960938 22.585938 51.464844 C 21.871094 50.964844 21.179688 50.402344 20.550781 49.816406 C 20.679688 50.445312 20.832031 51.074219 21.027344 51.65625 C 21.375 52.761719 21.828125 53.777344 22.371094 54.730469 Z M 75.878906 55.035156 C 77.089844 55.425781 78.195312 55.46875 79.234375 55.1875 C 80.273438 54.90625 81.222656 54.296875 82.046875 53.367188 C 82.4375 52.933594 82.394531 52.265625 81.960938 51.875 C 81.527344 51.484375 80.855469 51.527344 80.46875 51.960938 C 79.925781 52.566406 79.339844 52.976562 78.691406 53.152344 C 78.042969 53.324219 77.328125 53.28125 76.527344 53.023438 C 75.964844 52.847656 75.378906 53.152344 75.207031 53.714844 C 75.011719 54.253906 75.316406 54.863281 75.878906 55.035156 Z M 89.015625 74.148438 C 89.191406 74.820312 89.296875 75.511719 89.320312 76.183594 L 95.964844 76.183594 C 96.117188 75.25 96.136719 74.257812 96.03125 73.304688 C 95.945312 72.589844 95.769531 71.898438 95.488281 71.246094 C 93.585938 72.675781 91.375 73.695312 89.015625 74.148438 Z M 13.625 78.5625 L 9.359375 78.5625 C 9.273438 78.023438 9.230469 77.480469 9.230469 76.917969 C 9.230469 75.359375 9.578125 73.800781 10.421875 72.523438 C 11.265625 71.269531 12.605469 70.25 14.640625 69.777344 C 15.464844 69.582031 16.394531 69.472656 17.433594 69.472656 L 25.160156 69.472656 C 25.746094 69.472656 26.222656 68.996094 26.222656 68.410156 C 26.222656 67.828125 25.746094 67.351562 25.160156 67.351562 L 18.515625 67.351562 C 18.734375 63.648438 20.140625 60.121094 22.890625 57.175781 C 22.933594 57.132812 22.976562 57.089844 23.019531 57.046875 C 23.667969 56.355469 24.402344 55.707031 25.226562 55.097656 C 29.707031 51.699219 36.527344 49.515625 46.007812 49.492188 C 46.417969 49.492188 46.828125 49.492188 47.242188 49.492188 C 46.070312 51.03125 45.03125 52.652344 44.078125 54.363281 C 43.085938 56.160156 42.414062 57.804688 42.046875 59.253906 C 41.527344 59.015625 40.984375 58.824219 40.445312 58.648438 C 39.46875 58.367188 38.429688 58.214844 37.371094 58.214844 C 36.785156 58.214844 36.308594 58.691406 36.308594 59.277344 C 36.308594 59.863281 36.785156 60.335938 37.371094 60.335938 C 38.234375 60.335938 39.078125 60.46875 39.878906 60.683594 C 40.507812 60.855469 41.113281 61.117188 41.675781 61.421875 C 41.417969 64.730469 42.847656 66.960938 45.207031 68.261719 C 45.59375 68.476562 46.027344 68.671875 46.460938 68.824219 L 46.460938 68.867188 C 46.484375 69.039062 46.484375 69.234375 46.484375 69.449219 C 46.484375 71.960938 45.464844 74.234375 43.796875 75.878906 C 42.152344 77.523438 39.878906 78.5625 37.371094 78.5625 Z M 95.53125 55.230469 C 94.601562 56.160156 94.796875 57.15625 95.445312 58.5625 C 96.375 60.574219 98.171875 61.007812 99.601562 60.574219 C 99.234375 63.367188 97.871094 65.988281 95.898438 68.042969 C 95.554688 68.410156 95.1875 68.738281 94.796875 69.0625 C 94.234375 69.257812 93.5625 69.257812 92.914062 69.0625 C 92.242188 68.867188 91.636719 68.476562 91.246094 67.9375 C 91.160156 67.804688 91.09375 67.675781 91.03125 67.546875 C 90.8125 67.003906 90.207031 66.746094 89.667969 66.960938 C 89.125 67.179688 88.867188 67.785156 89.082031 68.324219 C 89.191406 68.605469 89.339844 68.886719 89.515625 69.125 C 90.097656 69.96875 90.964844 70.597656 91.917969 70.964844 C 90.769531 71.527344 89.515625 71.941406 88.238281 72.136719 C 88.109375 71.875 87.957031 71.617188 87.78125 71.355469 C 86.65625 69.667969 84.902344 68.324219 82.285156 67.71875 C 81.3125 67.480469 80.230469 67.371094 79.015625 67.371094 L 69.925781 67.371094 C 69.339844 67.371094 68.863281 67.847656 68.863281 68.433594 C 68.863281 69.019531 69.339844 69.492188 69.925781 69.492188 L 79.015625 69.492188 C 80.078125 69.492188 81.007812 69.601562 81.808594 69.796875 C 83.84375 70.273438 85.1875 71.269531 86.03125 72.546875 C 86.875 73.824219 87.21875 75.402344 87.21875 76.941406 C 87.21875 77.503906 87.175781 78.042969 87.089844 78.585938 L 43.90625 78.585938 C 44.40625 78.238281 44.859375 77.828125 45.292969 77.417969 C 47.328125 75.382812 48.582031 72.566406 48.582031 69.492188 L 48.582031 69.40625 C 50.335938 69.6875 52.285156 69.625 54.253906 69.277344 C 57.566406 68.691406 60.941406 67.308594 63.519531 65.316406 C 68 61.832031 70.097656 56.59375 65.464844 50.617188 C 65.121094 50.164062 64.449219 50.078125 63.996094 50.425781 C 63.539062 50.769531 63.453125 51.441406 63.800781 51.894531 C 67.5 56.65625 65.8125 60.835938 62.21875 63.628906 C 59.925781 65.402344 56.871094 66.660156 53.886719 67.179688 C 50.964844 67.699219 48.128906 67.503906 46.203125 66.441406 C 43.496094 64.949219 42.585938 61.484375 45.921875 55.402344 C 48.992188 49.816406 53.472656 45.011719 58.429688 41.894531 C 61.546875 39.925781 64.882812 38.628906 68.128906 38.238281 C 71.332031 37.847656 74.492188 38.324219 77.371094 39.925781 C 79.839844 41.269531 82.089844 43.433594 84.039062 46.527344 C 84.902344 47.914062 85.378906 49.058594 85.75 49.96875 C 86.832031 52.632812 87.351562 53.910156 92.589844 54.796875 C 92.976562 54.863281 93.628906 54.96875 94.234375 55.054688 C 94.730469 55.097656 95.164062 55.164062 95.53125 55.230469 Z M 99.0625 32.914062 L 101.636719 32.914062 L 98.605469 35.140625 C 98.238281 35.402344 98.171875 35.898438 98.433594 36.269531 C 98.585938 36.484375 98.84375 36.59375 99.082031 36.59375 L 104.082031 36.59375 C 104.535156 36.59375 104.882812 36.222656 104.882812 35.792969 C 104.882812 35.359375 104.515625 34.992188 104.082031 34.992188 L 101.527344 34.992188 L 104.515625 32.78125 C 104.730469 32.632812 104.882812 32.394531 104.882812 32.113281 C 104.882812 31.679688 104.515625 31.3125 104.082031 31.3125 L 99.0625 31.3125 C 98.628906 31.3125 98.257812 31.679688 98.257812 32.113281 C 98.257812 32.566406 98.628906 32.914062 99.0625 32.914062 Z M 94.125 40.316406 L 96.03125 40.316406 L 93.777344 41.980469 C 93.519531 42.175781 93.453125 42.546875 93.648438 42.804688 C 93.757812 42.957031 93.953125 43.042969 94.125 43.042969 L 97.847656 43.042969 C 98.171875 43.042969 98.453125 42.78125 98.453125 42.4375 C 98.453125 42.113281 98.195312 41.832031 97.847656 41.832031 L 95.945312 41.832031 L 98.171875 40.207031 C 98.347656 40.097656 98.453125 39.925781 98.453125 39.710938 C 98.453125 39.382812 98.195312 39.101562 97.847656 39.101562 L 94.125 39.101562 C 93.800781 39.101562 93.519531 39.363281 93.519531 39.710938 C 93.519531 40.035156 93.777344 40.316406 94.125 40.316406 Z M 7.433594 79.796875 C 7.21875 78.886719 7.109375 77.894531 7.109375 76.917969 C 7.109375 74.992188 7.5625 73.023438 8.667969 71.355469 C 9.792969 69.667969 11.546875 68.324219 14.164062 67.71875 C 14.859375 67.566406 15.59375 67.460938 16.417969 67.394531 C 16.613281 63.390625 18.0625 59.535156 20.875 56.289062 C 20.097656 55.078125 19.492188 53.734375 19.035156 52.308594 C 18.496094 50.617188 18.191406 48.757812 18.082031 46.746094 C 18.039062 46.375 18.191406 46.007812 18.515625 45.769531 C 18.992188 45.425781 19.640625 45.53125 19.988281 46.007812 C 20.875 47.242188 22.261719 48.648438 23.820312 49.730469 C 24.945312 50.511719 26.136719 51.117188 27.28125 51.332031 C 31.914062 48.886719 38.128906 47.414062 46.050781 47.394531 C 47.003906 47.394531 47.953125 47.414062 48.949219 47.457031 C 51.417969 44.515625 54.296875 42.003906 57.328125 40.097656 C 60.726562 37.957031 64.320312 36.550781 67.914062 36.117188 C 71.546875 35.683594 75.140625 36.222656 78.433594 38.042969 C 81.203125 39.558594 83.714844 41.9375 85.878906 45.359375 C 86.851562 46.894531 87.351562 48.128906 87.761719 49.148438 C 88.539062 51.074219 88.929688 52.003906 92.976562 52.675781 C 93.734375 52.804688 94.191406 52.871094 94.601562 52.933594 C 99.925781 53.777344 102.089844 54.125 101.808594 59.710938 C 101.636719 63.390625 99.96875 66.875 97.4375 69.492188 C 97.328125 69.601562 97.242188 69.6875 97.132812 69.796875 C 97.652344 70.816406 97.957031 71.917969 98.109375 73.023438 C 98.304688 74.515625 98.195312 76.03125 97.871094 77.417969 C 97.785156 77.914062 97.351562 78.304688 96.832031 78.304688 L 89.277344 78.304688 C 89.210938 78.824219 89.125 79.320312 89.015625 79.796875 C 88.929688 80.296875 88.496094 80.683594 87.976562 80.683594 L 8.472656 80.683594 C 7.953125 80.683594 7.519531 80.296875 7.433594 79.796875 Z M 7.433594 79.796875 " fill-opacity="1" fill-rule="evenodd"/></g></svg>