<svg xmlns="http://www.w3.org/2000/svg" xmlns:xlink="http://www.w3.org/1999/xlink" width="500" zoomAndPan="magnify" viewBox="0 0 375 374.999991" height="500" preserveAspectRatio="xMidYMid meet" version="1.0"><defs><clipPath id="5f34ca049e"><path d="M 94.328125 148 L 146 148 L 146 205 L 94.328125 205 Z M 94.328125 148 " clip-rule="nonzero"/></clipPath><clipPath id="29564d9eb9"><path d="M 132 101.3125 L 182 101.3125 L 182 166 L 132 166 Z M 132 101.3125 " clip-rule="nonzero"/></clipPath><clipPath id="416f9914c5"><path d="M 189 101.3125 L 242 101.3125 L 242 167 L 189 167 Z M 189 101.3125 " clip-rule="nonzero"/></clipPath><clipPath id="3146e80797"><path d="M 119.542969 166.667969 L 251.734375 166.667969 L 251.734375 273.65625 L 119.542969 273.65625 Z M 119.542969 166.667969 " clip-rule="nonzero"/></clipPath><clipPath id="de2476caad"><path d="M 229 148 L 280.328125 148 L 280.328125 205 L 229 205 Z M 229 148 " clip-rule="nonzero"/></clipPath><clipPath id="aa49101348"><path d="M 275 110 L 291 110 L 291 119 L 275 119 Z M 275 110 " clip-rule="nonzero"/></clipPath><clipPath id="5aaa0aac90"><path d="M 241.960938 70.097656 L 291.277344 50.003906 L 319.574219 119.460938 L 270.261719 139.554688 Z M 241.960938 70.097656 " clip-rule="nonzero"/></clipPath><clipPath id="940967f13c"><path d="M 241.960938 70.097656 L 291.277344 50.003906 L 319.574219 119.460938 L 270.261719 139.554688 Z M 241.960938 70.097656 " clip-rule="nonzero"/></clipPath><clipPath id="bdf21c8c84"><path d="M 274 127 L 281 127 L 281 134 L 274 134 Z M 274 127 " clip-rule="nonzero"/></clipPath><clipPath id="7a2168ffed"><path d="M 241.960938 70.097656 L 291.277344 50.003906 L 319.574219 119.460938 L 270.261719 139.554688 Z M 241.960938 70.097656 " clip-rule="nonzero"/></clipPath><clipPath id="653152eb4e"><path d="M 241.960938 70.097656 L 291.277344 50.003906 L 319.574219 119.460938 L 270.261719 139.554688 Z M 241.960938 70.097656 " clip-rule="nonzero"/></clipPath><clipPath id="ebe5fdb710"><path d="M 271 110 L 284 110 L 284 138 L 271 138 Z M 271 110 " clip-rule="nonzero"/></clipPath><clipPath id="58492d8169"><path d="M 241.960938 70.097656 L 291.277344 50.003906 L 319.574219 119.460938 L 270.261719 139.554688 Z M 241.960938 70.097656 " clip-rule="nonzero"/></clipPath><clipPath id="50c2bf18c2"><path d="M 241.960938 70.097656 L 291.277344 50.003906 L 319.574219 119.460938 L 270.261719 139.554688 Z M 241.960938 70.097656 " clip-rule="nonzero"/></clipPath><clipPath id="0e1f5abb2c"><path d="M 284 73 L 301 73 L 301 78 L 284 78 Z M 284 73 " clip-rule="nonzero"/></clipPath><clipPath id="9c8aff5e63"><path d="M 241.960938 70.097656 L 291.277344 50.003906 L 319.574219 119.460938 L 270.261719 139.554688 Z M 241.960938 70.097656 " clip-rule="nonzero"/></clipPath><clipPath id="ead9492b88"><path d="M 241.960938 70.097656 L 291.277344 50.003906 L 319.574219 119.460938 L 270.261719 139.554688 Z M 241.960938 70.097656 " clip-rule="nonzero"/></clipPath><clipPath id="adeac92a54"><path d="M 297 93 L 302 93 L 302 97 L 297 97 Z M 297 93 " clip-rule="nonzero"/></clipPath><clipPath id="600f693418"><path d="M 241.960938 70.097656 L 291.277344 50.003906 L 319.574219 119.460938 L 270.261719 139.554688 Z M 241.960938 70.097656 " clip-rule="nonzero"/></clipPath><clipPath id="3e0edd5d93"><path d="M 241.960938 70.097656 L 291.277344 50.003906 L 319.574219 119.460938 L 270.261719 139.554688 Z M 241.960938 70.097656 " clip-rule="nonzero"/></clipPath><clipPath id="c91a05db9a"><path d="M 295 73 L 306 73 L 306 100 L 295 100 Z M 295 73 " clip-rule="nonzero"/></clipPath><clipPath id="320d66bcf8"><path d="M 241.960938 70.097656 L 291.277344 50.003906 L 319.574219 119.460938 L 270.261719 139.554688 Z M 241.960938 70.097656 " clip-rule="nonzero"/></clipPath><clipPath id="99dadfd6f2"><path d="M 241.960938 70.097656 L 291.277344 50.003906 L 319.574219 119.460938 L 270.261719 139.554688 Z M 241.960938 70.097656 " clip-rule="nonzero"/></clipPath><clipPath id="a2fc45f8ef"><path d="M 279 92 L 286 92 L 286 97 L 279 97 Z M 279 92 " clip-rule="nonzero"/></clipPath><clipPath id="efa962c07b"><path d="M 241.960938 70.097656 L 291.277344 50.003906 L 319.574219 119.460938 L 270.261719 139.554688 Z M 241.960938 70.097656 " clip-rule="nonzero"/></clipPath><clipPath id="beeac58f4b"><path d="M 241.960938 70.097656 L 291.277344 50.003906 L 319.574219 119.460938 L 270.261719 139.554688 Z M 241.960938 70.097656 " clip-rule="nonzero"/></clipPath><clipPath id="f41931b83d"><path d="M 276 76 L 289 76 L 289 100 L 276 100 Z M 276 76 " clip-rule="nonzero"/></clipPath><clipPath id="67b40bb769"><path d="M 241.960938 70.097656 L 291.277344 50.003906 L 319.574219 119.460938 L 270.261719 139.554688 Z M 241.960938 70.097656 " clip-rule="nonzero"/></clipPath><clipPath id="4cb3efcee8"><path d="M 241.960938 70.097656 L 291.277344 50.003906 L 319.574219 119.460938 L 270.261719 139.554688 Z M 241.960938 70.097656 " clip-rule="nonzero"/></clipPath><clipPath id="ccd22d4932"><path d="M 245 68 L 264 68 L 264 73 L 245 73 Z M 245 68 " clip-rule="nonzero"/></clipPath><clipPath id="d25f58bd48"><path d="M 241.960938 70.097656 L 291.277344 50.003906 L 319.574219 119.460938 L 270.261719 139.554688 Z M 241.960938 70.097656 " clip-rule="nonzero"/></clipPath><clipPath id="14457dfcb1"><path d="M 241.960938 70.097656 L 291.277344 50.003906 L 319.574219 119.460938 L 270.261719 139.554688 Z M 241.960938 70.097656 " clip-rule="nonzero"/></clipPath><clipPath id="33dae0876f"><path d="M 252 82 L 258 82 L 258 91 L 252 91 Z M 252 82 " clip-rule="nonzero"/></clipPath><clipPath id="ff70866036"><path d="M 241.960938 70.097656 L 291.277344 50.003906 L 319.574219 119.460938 L 270.261719 139.554688 Z M 241.960938 70.097656 " clip-rule="nonzero"/></clipPath><clipPath id="ec8f620eb7"><path d="M 241.960938 70.097656 L 291.277344 50.003906 L 319.574219 119.460938 L 270.261719 139.554688 Z M 241.960938 70.097656 " clip-rule="nonzero"/></clipPath><clipPath id="aae1298c6d"><path d="M 245 68 L 261 68 L 261 94 L 245 94 Z M 245 68 " clip-rule="nonzero"/></clipPath><clipPath id="433007d641"><path d="M 241.960938 70.097656 L 291.277344 50.003906 L 319.574219 119.460938 L 270.261719 139.554688 Z M 241.960938 70.097656 " clip-rule="nonzero"/></clipPath><clipPath id="56b641d4ca"><path d="M 241.960938 70.097656 L 291.277344 50.003906 L 319.574219 119.460938 L 270.261719 139.554688 Z M 241.960938 70.097656 " clip-rule="nonzero"/></clipPath></defs><g clip-path="url(#5f34ca049e)"><path fill="#115e59" d="M 126.742188 204.097656 C 127.152344 204.054688 127.5625 204.015625 127.976562 203.992188 C 132.457031 203.394531 136.40625 201.214844 139.429688 197.863281 C 141.878906 195.191406 143.484375 191.960938 144.410156 188.175781 C 145.1875 185.214844 145.335938 181.90625 144.839844 178.632812 C 144.101562 172.09375 141.53125 165.921875 137.148438 160.492188 C 135.769531 158.765625 134.1875 157.039062 132.398438 155.535156 C 128.40625 152.144531 124.3125 150.210938 119.890625 149.140625 C 116.972656 148.5625 114.257812 148.359375 111.417969 148.8125 C 106.933594 149.59375 103.171875 151.566406 100.148438 154.898438 C 97.699219 157.59375 95.929688 161.234375 95.230469 165.222656 C 94.78125 167.324219 94.554688 169.398438 94.71875 171.457031 L 94.757812 172.074219 C 94.820312 172.691406 94.859375 173.308594 94.921875 173.921875 L 94.964844 174.519531 C 95.558594 179.230469 97.164062 183.632812 99.570312 187.765625 C 101.484375 190.910156 103.808594 193.8125 106.484375 196.28125 C 110.265625 199.675781 114.378906 202.019531 118.800781 203.089844 C 121.578125 204.097656 124.273438 204.28125 126.742188 204.097656 " fill-opacity="1" fill-rule="nonzero"/></g><g clip-path="url(#29564d9eb9)"><path fill="#115e59" d="M 133.570312 141.203125 C 134.804688 146.136719 136.859375 150.457031 139.535156 154.160156 C 142.207031 157.859375 145.085938 160.535156 148.582031 162.589844 C 151.460938 164.441406 154.546875 165.472656 157.839844 165.675781 L 159.484375 165.675781 C 162.773438 165.675781 165.859375 164.855469 168.535156 163.003906 C 171.207031 161.5625 173.675781 159.300781 175.734375 156.625 C 178.613281 152.925781 180.460938 148.402344 181.285156 143.050781 C 181.492188 140.789062 181.695312 138.527344 181.695312 136.058594 C 181.695312 134.207031 181.492188 132.359375 181.285156 130.503906 C 180.875 127.214844 180.050781 124.128906 178.816406 121.046875 C 176.761719 115.902344 173.882812 111.582031 170.179688 108.292969 C 167.503906 105.824219 164.625 103.972656 161.539062 102.945312 C 157.632812 101.503906 153.726562 101.300781 149.816406 102.328125 C 146.117188 103.152344 142.824219 105.207031 139.945312 108.292969 C 137.476562 110.96875 135.832031 113.847656 134.390625 117.34375 C 132.953125 121.457031 132.128906 125.777344 132.128906 130.710938 C 132.128906 131.535156 132.335938 132.359375 132.335938 133.589844 C 132.539062 136.058594 132.953125 138.734375 133.570312 141.203125 " fill-opacity="1" fill-rule="nonzero"/></g><g clip-path="url(#416f9914c5)"><path fill="#115e59" d="M 191.980469 150.867188 C 193.421875 154.980469 195.476562 158.273438 198.355469 160.945312 C 202.058594 164.441406 206.378906 166.5 211.316406 166.703125 L 212.550781 166.703125 C 215.015625 166.703125 217.28125 166.089844 219.746094 166.089844 C 223.242188 164.648438 226.328125 162.589844 229.414062 159.710938 C 232.5 156.625 234.964844 153.128906 236.816406 149.222656 C 239.492188 143.667969 240.929688 137.910156 241.136719 131.738281 C 241.136719 128.246094 240.929688 124.746094 240.109375 121.660156 C 239.082031 117.34375 237.640625 113.847656 235.378906 110.761719 C 231.675781 105.621094 226.738281 102.738281 220.980469 101.917969 C 220.773438 101.917969 220.773438 101.917969 220.570312 101.917969 L 215.839844 101.917969 C 213.164062 102.328125 210.285156 103.152344 207.816406 104.589844 C 204.527344 106.441406 201.441406 109.117188 198.769531 112.40625 C 195.890625 115.902344 193.832031 120.015625 192.1875 124.542969 C 190.746094 128.65625 190.128906 132.972656 189.925781 137.292969 C 189.925781 139.144531 189.925781 140.996094 190.128906 142.847656 C 190.539062 145.726562 191.160156 148.402344 191.980469 150.867188 " fill-opacity="1" fill-rule="nonzero"/></g><g clip-path="url(#3146e80797)"><path fill="#115e59" d="M 243.789062 220.386719 C 241.117188 216.480469 237.824219 212.777344 233.917969 209.484375 C 231.246094 207.015625 228.570312 204.34375 226.308594 201.464844 C 223.839844 198.378906 221.578125 195.089844 219.726562 192.207031 L 218.289062 189.945312 C 216.847656 187.683594 215.40625 185.628906 213.96875 183.363281 C 211.703125 180.074219 209.648438 177.402344 207.386719 175.34375 C 203.476562 171.640625 198.953125 169.171875 193.8125 167.9375 C 190.519531 167.117188 187.023438 166.910156 183.734375 166.910156 C 180.648438 166.910156 177.5625 167.527344 174.683594 168.761719 C 171.1875 170.203125 168.101562 172.464844 164.8125 175.546875 C 162.960938 177.402344 160.902344 179.660156 158.847656 182.335938 C 156.789062 185.011719 154.941406 187.683594 153.089844 190.359375 L 152.058594 192.003906 C 149.589844 195.292969 147.121094 198.996094 144.242188 202.285156 C 141.777344 205.167969 139.511719 207.429688 137.25 209.484375 C 134.371094 211.953125 131.492188 214.832031 129.230469 217.917969 C 125.9375 222.238281 123.472656 226.96875 121.824219 231.699219 C 120.796875 234.988281 120.179688 238.28125 119.972656 241.570312 C 119.769531 244.449219 119.972656 247.535156 120.589844 250.207031 C 122.238281 257.820312 126.144531 263.988281 132.519531 268.515625 C 136.222656 271.1875 140.335938 272.832031 145.066406 273.242188 C 145.683594 273.449219 146.097656 273.449219 146.710938 273.449219 L 149.796875 273.449219 C 151.648438 273.449219 153.5 273.242188 154.941406 273.039062 C 159.054688 272.214844 163.164062 271.1875 166.867188 270.160156 L 167.074219 270.160156 C 170.570312 269.335938 174.066406 268.308594 177.5625 267.691406 C 179.003906 267.484375 180.855469 267.074219 182.707031 267.074219 C 185.171875 267.074219 187.433594 267.074219 189.492188 267.28125 C 192.371094 267.691406 195.664062 268.308594 199.15625 269.128906 C 200.804688 269.542969 202.65625 270.160156 204.300781 270.570312 C 206.5625 271.1875 209.03125 271.804688 211.5 272.421875 C 213.96875 273.039062 216.640625 273.65625 219.519531 273.65625 L 224.457031 273.65625 C 224.867188 273.65625 225.074219 273.449219 225.484375 272.832031 C 226.71875 272.832031 228.160156 272.628906 229.390625 272.214844 C 232.683594 271.394531 235.976562 269.953125 239.058594 267.691406 C 243.171875 264.8125 246.464844 261.109375 248.523438 256.789062 C 250.78125 252.058594 251.8125 247.125 251.605469 241.570312 C 251.402344 238.484375 250.78125 234.988281 249.546875 231.699219 C 248.316406 227.789062 246.464844 224.089844 243.789062 220.386719 " fill-opacity="1" fill-rule="nonzero"/></g><g clip-path="url(#de2476caad)"><path fill="#115e59" d="M 279.761719 165.222656 C 279.0625 161.234375 277.292969 157.59375 274.828125 154.898438 C 271.804688 151.566406 268.058594 149.59375 263.578125 148.8125 C 260.71875 148.359375 258.023438 148.5625 255.082031 149.140625 C 250.660156 150.210938 246.589844 152.144531 242.597656 155.535156 C 240.808594 157.039062 239.222656 158.765625 237.847656 160.492188 C 233.464844 165.921875 230.894531 172.09375 230.132812 178.632812 C 229.660156 181.90625 229.804688 185.214844 230.585938 188.175781 C 231.511719 191.960938 233.09375 195.191406 235.5625 197.863281 C 238.585938 201.214844 242.535156 203.394531 247.019531 203.992188 C 247.429688 204.015625 247.84375 204.054688 248.253906 204.097656 C 250.722656 204.28125 253.414062 204.097656 256.171875 203.089844 C 260.59375 202.019531 264.707031 199.675781 268.511719 196.28125 C 271.1875 193.8125 273.492188 190.910156 275.402344 187.765625 C 277.808594 183.632812 279.414062 179.230469 280.007812 174.519531 L 280.070312 173.921875 C 280.113281 173.308594 280.175781 172.691406 280.214844 172.074219 L 280.277344 171.457031 C 280.441406 169.398438 280.195312 167.324219 279.761719 165.222656 " fill-opacity="1" fill-rule="nonzero"/></g><g clip-path="url(#aa49101348)"><g clip-path="url(#5aaa0aac90)"><g clip-path="url(#940967f13c)"><path fill="#115e59" d="M 290.15625 115.679688 C 290.066406 115.90625 289.953125 116.117188 289.816406 116.316406 C 289.414062 116.886719 288.914062 117.351562 288.320312 117.71875 C 287.257812 118.332031 286.109375 118.660156 284.882812 118.707031 C 283.652344 118.75 282.484375 118.503906 281.378906 117.964844 C 280.128906 117.382812 279.050781 116.570312 278.152344 115.523438 C 277.578125 114.855469 277.085938 114.132812 276.671875 113.355469 C 276.277344 112.589844 275.953125 111.796875 275.703125 110.976562 C 275.703125 110.976562 276.707031 111.371094 278.105469 112.074219 C 279.503906 112.78125 281.28125 113.75 282.984375 114.523438 C 284.570312 115.269531 286.234375 115.699219 287.976562 115.820312 C 288.507812 115.84375 289.039062 115.828125 289.566406 115.769531 Z M 290.15625 115.679688 " fill-opacity="1" fill-rule="nonzero"/></g></g></g><g clip-path="url(#bdf21c8c84)"><g clip-path="url(#7a2168ffed)"><g clip-path="url(#653152eb4e)"><path fill="#115e59" d="M 279.96875 129.34375 C 279.867188 129.855469 279.636719 130.300781 279.277344 130.679688 C 278.363281 131.636719 277.320312 132.417969 276.140625 133.023438 C 275.785156 133.171875 275.582031 133.351562 275.320312 133.457031 L 274.925781 133.617188 C 274.84375 133.644531 274.757812 133.679688 274.679688 133.71875 C 274.582031 133.792969 274.480469 133.804688 274.371094 133.746094 C 274.289062 133.675781 274.253906 133.589844 274.265625 133.484375 C 274.238281 133.425781 274.238281 133.425781 274.261719 133.277344 C 274.308594 133.113281 274.363281 132.953125 274.425781 132.792969 C 274.722656 132.097656 275.085938 131.441406 275.523438 130.824219 C 276.289062 129.746094 277.214844 128.824219 278.292969 128.058594 C 278.730469 127.742188 279.1875 127.453125 279.660156 127.195312 C 279.730469 127.363281 279.796875 127.527344 279.871094 127.707031 C 280.027344 128.246094 280.058594 128.789062 279.96875 129.34375 Z M 279.96875 129.34375 " fill-opacity="1" fill-rule="nonzero"/></g></g></g><g clip-path="url(#ebe5fdb710)"><g clip-path="url(#58492d8169)"><g clip-path="url(#50c2bf18c2)"><path fill="#115e59" d="M 283.402344 127.15625 C 283.128906 126.28125 282.78125 125.632812 282.519531 124.988281 C 282.257812 124.347656 281.992188 123.695312 281.734375 123.0625 C 280.722656 120.578125 279.605469 118.382812 278.722656 116.652344 C 278.5625 116.257812 278.351562 115.914062 278.140625 115.5 C 276.757812 112.820312 275.816406 111.191406 275.65625 110.964844 C 275.910156 112.878906 276.261719 114.773438 276.710938 116.652344 C 277.132812 118.503906 277.699219 120.78125 278.480469 123.445312 C 278.769531 124.394531 279.0625 125.386719 279.378906 126.4375 C 278.832031 126.546875 278.292969 126.6875 277.761719 126.859375 C 276.585938 127.296875 275.503906 127.910156 274.527344 128.703125 C 273.550781 129.492188 272.722656 130.417969 272.046875 131.476562 C 271.886719 131.726562 271.742188 131.984375 271.609375 132.25 C 271.441406 132.605469 271.320312 132.980469 271.25 133.367188 C 271.078125 134.230469 271.222656 135.035156 271.691406 135.78125 C 272.074219 136.3125 272.5625 136.703125 273.167969 136.957031 C 273.769531 137.210938 274.394531 137.289062 275.039062 137.191406 C 275.421875 137.144531 275.632812 137.085938 275.867188 137.046875 L 276.535156 136.777344 C 276.941406 136.636719 277.335938 136.476562 277.722656 136.292969 C 279.414062 135.566406 280.886719 134.53125 282.144531 133.1875 C 282.875 132.332031 283.355469 131.355469 283.585938 130.257812 C 283.785156 129.207031 283.726562 128.171875 283.402344 127.15625 Z M 279.289062 130.675781 C 278.375 131.632812 277.332031 132.414062 276.15625 133.019531 C 275.796875 133.164062 275.59375 133.34375 275.332031 133.453125 L 274.925781 133.617188 C 274.84375 133.644531 274.757812 133.679688 274.679688 133.71875 C 274.582031 133.792969 274.480469 133.804688 274.371094 133.746094 C 274.289062 133.675781 274.253906 133.589844 274.265625 133.484375 C 274.238281 133.425781 274.238281 133.425781 274.261719 133.277344 C 274.308594 133.113281 274.363281 132.953125 274.425781 132.792969 C 274.722656 132.097656 275.085938 131.441406 275.523438 130.824219 C 276.289062 129.746094 277.214844 128.824219 278.292969 128.058594 C 278.730469 127.742188 279.1875 127.453125 279.660156 127.195312 C 279.730469 127.363281 279.796875 127.527344 279.871094 127.707031 C 280.027344 128.246094 280.058594 128.789062 279.96875 129.34375 C 279.863281 129.863281 279.625 130.3125 279.253906 130.6875 Z M 279.289062 130.675781 " fill-opacity="1" fill-rule="nonzero"/></g></g></g><g clip-path="url(#0e1f5abb2c)"><g clip-path="url(#9c8aff5e63)"><g clip-path="url(#ead9492b88)"><path fill="#115e59" d="M 300.703125 73.773438 L 300.035156 73.796875 L 298.234375 73.90625 C 296.746094 74.027344 294.769531 74.183594 292.566406 74.496094 C 290.367188 74.8125 288.421875 75.214844 286.949219 75.480469 L 285.199219 75.875 L 284.605469 76.0625 C 284.605469 76.0625 284.769531 76.1875 285.105469 76.398438 C 285.597656 76.703125 286.117188 76.953125 286.660156 77.152344 C 288.746094 77.929688 290.890625 78.15625 293.09375 77.832031 C 295.183594 77.511719 297.085938 76.738281 298.804688 75.507812 C 299.296875 75.121094 299.761719 74.703125 300.191406 74.246094 Z M 300.703125 73.773438 " fill-opacity="1" fill-rule="nonzero"/></g></g></g><g clip-path="url(#adeac92a54)"><g clip-path="url(#600f693418)"><g clip-path="url(#3e0edd5d93)"><path fill="#115e59" d="M 301.65625 93.0625 C 301.617188 94.054688 301.308594 94.957031 300.734375 95.769531 C 300.316406 96.40625 299.726562 96.753906 298.96875 96.808594 C 298.652344 96.804688 298.363281 96.71875 298.09375 96.5625 C 297.820312 96.402344 297.609375 96.1875 297.453125 95.914062 C 297.351562 95.621094 297.339844 95.324219 297.414062 95.023438 C 297.492188 94.722656 297.644531 94.46875 297.875 94.257812 C 298.347656 93.824219 298.886719 93.496094 299.492188 93.28125 C 300.097656 93.066406 300.71875 92.980469 301.363281 93.019531 C 301.460938 93.027344 301.558594 93.042969 301.65625 93.0625 Z M 301.65625 93.0625 " fill-opacity="1" fill-rule="nonzero"/></g></g></g><g clip-path="url(#c91a05db9a)"><g clip-path="url(#320d66bcf8)"><g clip-path="url(#99dadfd6f2)"><path fill="#115e59" d="M 302.699219 79.144531 C 302.175781 77.417969 301.671875 76.082031 301.304688 75.179688 C 300.9375 74.277344 300.726562 73.765625 300.726562 73.765625 C 300.765625 73.859375 300.777344 75.6875 300.964844 78.9375 C 301.0625 80.605469 301.191406 82.660156 301.34375 85.078125 C 301.417969 86.28125 301.492188 87.585938 301.550781 88.988281 C 301.609375 90.394531 301.746094 91.476562 301.65625 92.648438 L 301.480469 92.59375 C 300.882812 92.402344 300.273438 92.285156 299.648438 92.246094 C 298.699219 92.175781 297.816406 92.378906 296.996094 92.855469 C 296.472656 93.15625 296.039062 93.554688 295.695312 94.050781 C 295.285156 94.675781 295.101562 95.359375 295.144531 96.105469 C 295.179688 96.960938 295.484375 97.707031 296.054688 98.339844 C 296.628906 98.972656 297.328125 99.410156 298.144531 99.652344 C 298.578125 99.777344 299.015625 99.835938 299.464844 99.835938 C 299.929688 99.824219 300.382812 99.742188 300.820312 99.589844 C 301.667969 99.292969 302.398438 98.820312 303.015625 98.167969 C 304.230469 96.832031 304.894531 95.261719 305.007812 93.460938 C 305.089844 91.992188 305.015625 90.535156 304.792969 89.082031 C 304.628906 87.761719 304.394531 86.472656 304.183594 85.308594 C 303.804688 83.226562 303.308594 81.171875 302.699219 79.144531 Z M 301.664062 93.144531 C 301.621094 94.136719 301.3125 95.039062 300.742188 95.851562 C 300.324219 96.488281 299.734375 96.835938 298.972656 96.890625 C 298.660156 96.882812 298.367188 96.800781 298.097656 96.640625 C 297.828125 96.484375 297.613281 96.265625 297.457031 95.996094 C 297.355469 95.703125 297.34375 95.40625 297.421875 95.105469 C 297.496094 94.804688 297.648438 94.550781 297.878906 94.339844 C 298.351562 93.90625 298.890625 93.578125 299.496094 93.363281 C 300.101562 93.148438 300.726562 93.058594 301.367188 93.097656 C 301.46875 93.09375 301.570312 93.09375 301.671875 93.097656 Z M 301.664062 93.144531 " fill-opacity="1" fill-rule="nonzero"/></g></g></g><g clip-path="url(#a2fc45f8ef)"><g clip-path="url(#efa962c07b)"><g clip-path="url(#beeac58f4b)"><path fill="#115e59" d="M 285.042969 92.414062 C 285.039062 92.644531 285.019531 92.875 284.980469 93.105469 C 284.925781 93.5 284.78125 93.855469 284.539062 94.171875 C 284.171875 94.578125 283.734375 94.894531 283.234375 95.121094 C 282.675781 95.417969 281.917969 95.769531 281.382812 95.984375 C 281.011719 96.179688 280.617188 96.265625 280.199219 96.246094 C 280.070312 96.242188 279.945312 96.214844 279.832031 96.160156 C 279.765625 96.148438 279.710938 96.113281 279.675781 96.054688 C 279.601562 95.980469 279.5625 95.890625 279.566406 95.78125 C 279.617188 95.554688 279.714844 95.351562 279.855469 95.164062 C 280.207031 94.695312 280.625 94.296875 281.117188 93.972656 C 281.992188 93.363281 282.945312 92.921875 283.976562 92.65625 C 284.328125 92.554688 284.683594 92.472656 285.042969 92.414062 Z M 285.042969 92.414062 " fill-opacity="1" fill-rule="nonzero"/></g></g></g><g clip-path="url(#f41931b83d)"><g clip-path="url(#67b40bb769)"><g clip-path="url(#4cb3efcee8)"><path fill="#115e59" d="M 286.402344 81.65625 C 285.40625 78.191406 284.546875 76.085938 284.546875 76.085938 C 284.546875 76.085938 284.53125 78.1875 284.675781 81.675781 C 284.738281 83.398438 284.839844 85.480469 284.933594 87.824219 L 285.074219 91.5 L 285.082031 91.761719 C 284.761719 91.703125 284.441406 91.660156 284.117188 91.640625 C 282.863281 91.558594 281.648438 91.738281 280.46875 92.183594 C 279.640625 92.472656 278.890625 92.902344 278.222656 93.472656 C 277.792969 93.84375 277.457031 94.28125 277.207031 94.789062 C 277.054688 95.089844 276.953125 95.40625 276.90625 95.738281 C 276.859375 96.074219 276.867188 96.40625 276.929688 96.734375 C 276.996094 97.066406 277.109375 97.378906 277.277344 97.667969 C 277.441406 97.960938 277.652344 98.21875 277.902344 98.441406 C 278.324219 98.816406 278.800781 99.082031 279.339844 99.246094 C 280.34375 99.511719 281.335938 99.476562 282.320312 99.140625 C 283.105469 98.882812 283.871094 98.570312 284.617188 98.203125 C 285.59375 97.785156 286.429688 97.171875 287.125 96.363281 C 287.730469 95.609375 288.097656 94.753906 288.226562 93.792969 C 288.335938 93.039062 288.351562 92.285156 288.273438 91.527344 C 288.144531 90.191406 287.980469 89 287.765625 87.824219 C 287.410156 85.457031 286.882812 83.386719 286.402344 81.65625 Z M 284.980469 93.105469 C 284.925781 93.5 284.78125 93.855469 284.539062 94.171875 C 284.171875 94.578125 283.734375 94.894531 283.234375 95.121094 C 282.675781 95.417969 281.917969 95.769531 281.382812 95.984375 C 281.011719 96.179688 280.617188 96.265625 280.199219 96.246094 C 280.070312 96.242188 279.945312 96.214844 279.832031 96.160156 C 279.765625 96.148438 279.710938 96.113281 279.675781 96.054688 C 279.601562 95.980469 279.5625 95.890625 279.566406 95.78125 C 279.617188 95.554688 279.714844 95.351562 279.855469 95.164062 C 280.207031 94.695312 280.625 94.296875 281.117188 93.972656 C 281.992188 93.363281 282.945312 92.921875 283.976562 92.65625 C 284.3125 92.5625 284.652344 92.488281 284.996094 92.433594 C 285.007812 92.65625 285 92.882812 284.980469 93.105469 Z M 284.980469 93.105469 " fill-opacity="1" fill-rule="nonzero"/></g></g></g><g clip-path="url(#ccd22d4932)"><g clip-path="url(#d25f58bd48)"><g clip-path="url(#14457dfcb1)"><path fill="#115e59" d="M 245.578125 68.761719 C 245.699219 68.996094 245.832031 69.21875 245.988281 69.429688 C 246.433594 70.03125 246.972656 70.539062 247.605469 70.945312 C 249.796875 72.222656 252.160156 72.78125 254.695312 72.621094 C 257.425781 72.519531 259.570312 72.230469 261.171875 72.351562 C 261.839844 72.410156 262.496094 72.527344 263.144531 72.699219 L 263.878906 72.902344 C 263.769531 72.691406 263.644531 72.492188 263.507812 72.300781 C 263.089844 71.746094 262.585938 71.273438 262.003906 70.890625 C 261.050781 70.285156 260.019531 69.863281 258.910156 69.625 C 257.496094 69.316406 256.066406 69.1875 254.621094 69.238281 C 252.0625 69.324219 249.910156 69.589844 248.269531 69.441406 C 247.589844 69.386719 246.925781 69.253906 246.277344 69.046875 C 245.796875 68.894531 245.578125 68.761719 245.578125 68.761719 Z M 245.578125 68.761719 " fill-opacity="1" fill-rule="nonzero"/></g></g></g><g clip-path="url(#33dae0876f)"><g clip-path="url(#ff70866036)"><g clip-path="url(#ec8f620eb7)"><path fill="#115e59" d="M 257.457031 86.109375 C 257.378906 87.234375 256.957031 88.207031 256.195312 89.039062 C 255.644531 89.804688 254.902344 90.246094 253.964844 90.363281 C 253.574219 90.320312 253.234375 90.171875 252.9375 89.917969 C 252.640625 89.664062 252.4375 89.351562 252.332031 88.976562 C 251.972656 88.140625 251.925781 87.285156 252.1875 86.414062 C 252.761719 84.953125 253.640625 83.707031 254.824219 82.675781 L 255.347656 82.1875 L 255.839844 82.789062 C 256.765625 83.707031 257.304688 84.816406 257.457031 86.109375 Z M 257.457031 86.109375 " fill-opacity="1" fill-rule="nonzero"/></g></g></g><g clip-path="url(#aae1298c6d)"><g clip-path="url(#433007d641)"><g clip-path="url(#56b641d4ca)"><path fill="#115e59" d="M 260.054688 83.125 C 259.617188 82.351562 259.089844 81.640625 258.480469 80.992188 C 257.425781 79.871094 256.464844 78.875 255.503906 77.90625 C 253.597656 76.019531 251.851562 74.359375 250.371094 73.007812 C 247.5625 70.4375 245.660156 68.964844 245.578125 68.761719 C 245.671875 68.988281 246.714844 70.738281 248.773438 73.675781 C 249.867188 75.238281 251.265625 77.136719 252.988281 79.320312 C 253.636719 80.136719 254.324219 81.007812 255.066406 81.910156 L 254.546875 82.195312 C 253.933594 82.507812 253.351562 82.871094 252.796875 83.28125 C 251.988281 83.855469 251.3125 84.558594 250.773438 85.394531 C 250.011719 86.574219 249.734375 87.855469 249.941406 89.242188 C 250.074219 90.050781 250.371094 90.785156 250.84375 91.453125 C 251.402344 92.289062 252.164062 92.84375 253.128906 93.117188 C 254.136719 93.410156 255.128906 93.359375 256.101562 92.957031 C 256.988281 92.605469 257.765625 92.09375 258.445312 91.421875 C 259.101562 90.765625 259.648438 90.027344 260.078125 89.203125 C 260.578125 88.261719 260.84375 87.257812 260.875 86.1875 C 260.875 85.09375 260.601562 84.074219 260.054688 83.125 Z M 257.457031 86.109375 C 257.378906 87.234375 256.957031 88.207031 256.195312 89.039062 C 255.644531 89.804688 254.902344 90.246094 253.964844 90.363281 C 253.574219 90.320312 253.234375 90.171875 252.9375 89.917969 C 252.640625 89.664062 252.4375 89.351562 252.332031 88.976562 C 251.972656 88.140625 251.925781 87.285156 252.1875 86.414062 C 252.761719 84.953125 253.640625 83.707031 254.824219 82.675781 L 255.347656 82.1875 L 255.839844 82.789062 C 256.765625 83.707031 257.304688 84.816406 257.457031 86.109375 Z M 257.457031 86.109375 " fill-opacity="1" fill-rule="nonzero"/></g></g></g></svg>